<svg xmlns:dc="http://purl.org/dc/elements/1.1/" xmlns:cc="http://creativecommons.org/ns#" xmlns:rdf="http://www.w3.org/1999/02/22-rdf-syntax-ns#" xmlns:svg="http://www.w3.org/2000/svg" xmlns="http://www.w3.org/2000/svg" xmlns:sodipodi="http://sodipodi.sourceforge.net/DTD/sodipodi-0.dtd" xmlns:inkscape="http://www.inkscape.org/namespaces/inkscape" class="svg replaced-svg" preserveAspectRatio="xMinYMin meet" pretty_print="False" viewBox="0 0 1000 514" width="100%" height="100%" style="fill: none; stroke-linejoin: round; stroke: rgb(0, 0, 0);" version="1.1" id="svg4709" sodipodi:docname="countries2.svg" inkscape:version="0.92.2 (5c3e80d, 2017-08-06)">
    <metadata id="metadata4713">
        <rdf:RDF>
            <cc:Work rdf:about="">
                <dc:format>image/svg+xml</dc:format>
                <dc:type rdf:resource="http://purl.org/dc/dcmitype/StillImage"></dc:type>
                <dc:title></dc:title>
            </cc:Work>
        </rdf:RDF>
    </metadata>
    <sodipodi:namedview pagecolor="#ffffff" bordercolor="#666666" borderopacity="1" objecttolerance="10" gridtolerance="10" guidetolerance="10" inkscape:pageopacity="0" inkscape:pageshadow="2" inkscape:window-width="1920" inkscape:window-height="1017" id="namedview4711" showgrid="false" inkscape:zoom="8.3268894" inkscape:cx="569.42929" inkscape:cy="311.06939" inkscape:window-x="-8" inkscape:window-y="-8" inkscape:window-maximized="1" inkscape:current-layer="svg4709"></sodipodi:namedview>
    <style id="style4207">.a{fill:#fff;stroke-linejoin:round;stroke-width:0.7;stroke:#000;}</style>
    <defs id="defs4211">
        <style type="text/css" id="style4209">  path { fill-rule: evenodd; }</style>
    </defs>
    <path d="M656 136.8L656.1 137.1 660.1 150.7 659.2 154.1 658.4 155.4 658.8 155.5 673.4 155.1 672.9 151.9 680.3 148.7 680.3 142 683.8 137.7 682.3 135.1 690.5 132.4 690.4 132.2 689.9 131.8 690.7 131.3 690.9 131.5 691.1 131.5 690.5 131 680 127.6 678.4 129.8 672.3 132 672.2 131.6 672.2 131.6 671.5 131.3 670.8 131.6 668.9 131 668.8 131.1 668.2 131.2 664.1 134.7 661.3 136 656.2 136.7 656 136.8Z" path-identifier="AFG" id="path4213"></path>
    <path d="M542.7 116.7L542.6 118.5 542.3 120.4 544.3 123.1 544.4 123.5 545 123.5 546.6 119.9 546.6 119.7 546.6 119.6 545.7 119 545.2 118.2 545.1 117 545.3 116.5 545.3 116.3 545 115.5 544 114.5 543.7 114.4 543.7 114.4 542.1 115.8 542.1 116.6 542.7 116.7Z" path-identifier="ALB" id="path4215"></path>
    <path d="M467.8 162.5L467.8 163.7 472.6 167 477.4 170.4 478.3 171.1 483.1 174.6 494.9 183.7 497 186.5 501 190.5 503.6 190 508 189 512.5 184.5 524.7 176.1 525 175.9 523.8 173.3 517.7 167.4 518.8 158.6 517.1 154.6 517.8 154.2 516.7 149.9 512.6 143.9 514.7 132.4 514.3 132.6 499.7 132.9 495 133.9 485.8 138.5 485.7 138.5 487.2 144.5 476.4 155.3 467.8 159.1 467.8 162.5Z" path-identifier="DZA" id="path4217"></path>
    <path d="M496.3 114.3L495.7 114.1 495.4 114.3 495.4 114.3 495.4 114.7 495.7 114.8 496.1 114.6 496.3 114.3Z" path-identifier="AND" id="path4219"></path>
    <path d="M526.2 268L525.9 268.1 526.1 268.5 526.3 270.2 526.4 270.4 527.3 270.3 528.9 266.9 529 266.8 528.5 266.3 528.1 266 527 266.7 525.9 268 526.2 268ZM529 270.9L528.7 281.1 531 287.2 530.7 290.2 527.1 295.1 524.8 307.4 524.8 307.5 531 308.1 539.6 308 555.9 309.1 557.7 308.7 556.9 308.2 553.9 304.2 553.9 293.8 559.7 293.8 559.9 288.7 559.7 286.9 559.4 287.4 554.8 288.1 553.7 275.5 549.5 274.4 546.8 277.6 543.2 277.7 538.3 270.7 529.2 270.7 529 270.9Z" path-identifier="AGO" id="path4221"></path>
    <path d="M837.8 464.6L837.7 465 838.7 464.4 837.8 464.6ZM364.6 455.9L366.7 455.2 364.8 454.4 364.6 455.9ZM346.5 465.4L347.5 462.6 346.5 462.8 346.5 465.4ZM368.5 446.4L366.5 446.4 367.5 446.7 368.5 446.4ZM352 456.8L354.2 456.5 353.6 456 352 456.8ZM360.3 449.7L363 449.1 362.7 448.9 360.3 449.7ZM303.6 468.1L303.3 468.7 304.2 468.7 303.6 468.1ZM356.2 451.1L358.7 451 358.2 450.6 356.2 451.1ZM213 485.2L211.4 485.9 212.3 486.1 213 485.2ZM406.8 491.1L407.2 491 403.6 490.5 406.8 491.1ZM285.4 480.1L287.2 480.5 287.1 480.4 285.4 480.1ZM764.9 512.2L817.8 492.2 794.9 489.6 809.7 483.5 828.6 478.4 829.9 473.1 820.2 472.4 820.5 470.5 812.3 468.8 813.1 467.4 806.2 467 797.6 465 800.3 463.3 770.2 460.3 766.4 463 752.7 459.6 748.8 462.6 740 462.9 735.2 459.6 719 461.6 713.9 458.5 705.2 460.2 697.3 459.3 691 462.2 672.5 462.2 666 460.5 662.4 465.6 653.2 468.8 646 469.8 644.4 467.4 640.1 467.9 637.9 465.6 624 465.2 611.5 463.7 613.3 462.4 602 460.8 592.1 465.4 589.4 464.1 581.4 466.2 569.8 471.7 560.7 468 543.9 472.1 523.2 470.9 503 472.1 489.4 469.4 489.6 470.4 472.8 472.9 458.8 478.1 449.8 482.4 447 482.8 427.2 490.8 414.4 491 409.5 492 390.2 488.6 372.9 484.2 373.8 479.3 367.5 472.4 362.6 462.6 363.6 456.4 366 453.7 358.7 455 350.8 462.8 352.2 466.8 350.3 471.5 343.9 470.1 338.7 473.7 339.9 475.8 347.3 477.5 350.3 480.2 321 478.7 298.5 476.7 287.9 477.5 294.3 481.1 297 484.7 288.5 482.7 283.2 482.9 286.3 484.6 268.6 482.2 260 481.9 245 480.2 232.6 483.9 226.6 483.7 215.7 486 209.9 490 197.4 489.9 200.1 491.3 163.6 492.5 218.5 512.2 764.9 512.2Z" path-identifier="AQ" id="path4223"></path>
    <path d="M318 195.2L317.8 194.6 317.8 195 318 195.2ZM317.9 197L317.7 196.4 317.5 196.8 317.9 197Z" path-identifier="ATG" id="path4225"></path>
    <path d="M328.3 427.6L336.1 427 329.3 424.7 325.1 420.8 325.1 420.8 326 422.9 327.9 427.4 328.3 427.6ZM337.5 427.8L339.3 427.2 338.1 427.4 337.5 427.8ZM304.4 325.5L305 326.1 302 330.6 302.4 336.3 300.3 343.2 299.4 353.7 302 358 301.9 369.9 303.7 376 304.3 386.3 307 394.1 309.3 396.2 310.2 409.3 309.5 412.4 316.3 418.8 325.2 420 325.3 419.9 325.2 403.4 320.7 401.5 323.3 389.9 326.9 389.9 324.2 384.3 328.6 383.9 326.8 377.2 330.2 377.9 340.4 370.6 333.8 357.2 333.7 356.6 333.5 350.6 334 349.3 334 349.3 334.2 349.2 340.7 340.8 341.9 340.4 340.9 334.7 340.4 334.4 340.4 334.6 334.3 340.6 330 339.9 330.7 337.1 327.4 331.2 316.9 323.6 316.9 323.6 316.4 323.2 316.3 322.8 312.4 325.7 304.6 325.2 304.4 325.5Z" path-identifier="ARG" id="path4227"></path>
    <path d="M605.3 119.1L606.1 121.4 606.5 121.9 609.1 123.1 609.5 123.4 609.7 123.3 611.1 123.9 612.1 123.8 613.5 125.9 613.7 126.2 614.2 126 614.7 126.1 614.7 126.1 614.5 125.8 614.2 123.8 609.3 118.5 609.2 118.3 609.1 118.4 607.1 118.5 605.5 118.8 605.3 118.9 605.3 119.1Z" path-identifier="ARM" id="path4229"></path>
    <path d="M805 336.2L804.6 334.3 804.6 335.1 805 336.2ZM880.6 382.8L880.9 382.1 879.8 382.5 880.6 382.8ZM912.5 328.6L912.1 327.9 912.3 328.6 912.5 328.6ZM669.3 422.5L669.7 422 669 421.9 669.3 422.5ZM869.6 381.5L870.4 381.2 871.1 380.1 869.6 381.5ZM880.4 382L881.1 380.2 880.8 380.4 880.4 382ZM861.5 290L861.3 288.4 860.8 288.9 861.5 290ZM862.8 290.3L864.4 289.3 864.3 288.1 862.8 290.3ZM859.6 368.4L860 366.7 857.7 367.4 859.6 368.4ZM869.3 385.6L873.7 391.2 879 385.3 878.3 384 869.3 385.6ZM868.9 288.9L862.9 291 857.9 300.9 853.6 301.2 850.7 296.1 842.9 303.8 840.1 304 838.8 307.7 836.8 306 835.6 309.9 819.9 318.7 818.5 318.5 810.6 324.4 807 329.5 807.4 333.1 805.6 337.7 806.6 354 801.8 362.4 805.9 365 815.1 361.5 821.2 361 841.1 354.8 853.5 355.8 856.8 361.6 859.5 362 865.3 357.8 861.1 365.2 864.3 363.5 865 374.9 868.3 376 877.3 375.4 877.3 377.6 891.2 372.3 903.3 357.9 908.4 353.4 915.9 335.6 911.6 327.1 912 325.4 908.2 317.1 902.3 313 902.1 300.1 897.6 296.2 896.3 286.5 893.8 290.9 889.5 305.4 885.7 309 875.8 297.6 876.3 290.4 875.1 291.4 868.9 288.9Z" path-identifier="AUS" id="path4231"></path>
    <path d="M526.2 94.8L526.1 95 523.9 98.7 515.8 98.8 515.7 98.7 515.7 98.9 516 99 516 99.3 515.9 99.3 515.7 99.6 515.7 99.7 515.9 100 516 100 515.9 100.3 515.9 100.3 516.6 100.4 517.1 100.9 518.1 100.8 518.1 100.9 518.4 100.9 523.1 101.4 525.6 101.8 526.4 102 527.4 102.1 529.2 102 529.3 101.7 532.1 101 532.4 100.9 532.9 100.4 533.3 98.1 534.6 98.2 534.6 97.4 534.8 97.3 534.5 97.1 534.2 96.8 534.1 96.4 533.9 95.8 534 95.4 533.8 95 531.8 94.9 529.9 94.2 526.8 95.2 526.2 94.8Z" path-identifier="AUT" id="path4233"></path>
    <path d="M609.9 123.7L611.7 125.7 613.7 126.2 613.7 126.2 613.5 125.9 612.1 123.8 611.1 123.9 609.7 123.3 609.5 123.4 609.6 123.4 609.7 123.6 609.9 123.7ZM612.5 116.6L612.2 117.4 609.8 117.8 609.2 118.3 609.3 118.5 614.2 123.8 614.5 125.8 614.7 126.1 615.3 125.2 617.5 123.5 618.7 125 621.1 127.5 620.7 126.1 621.8 123.4 621.6 122.3 618.8 117.2 618.1 116.6 615.9 118.6 615 118.2 612.9 116.5 612.5 116.5 612.5 116.6Z" path-identifier="AZE" id="path4235"></path>
    <path d="M284.7 180L285.8 179 285.5 179.3 284.7 180ZM275.6 175.2L276 173.6 275.1 173.9 275.6 175.2ZM281.9 173.9L282.1 173.3 281.9 173.4 281.9 173.9ZM274.8 173.4L275.8 172 274.8 171.1 274.8 173.4ZM273.9 166.2L275.8 165.6 274.6 165.5 273.9 166.2ZM283.1 178L282.6 177 282.5 177.1 283.1 178Z" path-identifier="BHS" id="path4237"></path>
    <path d="M631.8 168.5L631.4 167.1 631.4 168 631.8 168.5Z" path-identifier="BHR" id="path4239"></path>
    <path d="M744.7 180.8L744.4 178.3 744.2 178.8 744.7 180.8ZM740.5 181.4L745.7 178.9 749.7 184.3 749.7 183.8 749.8 182.5 750.1 182.8 750.5 182.7 750.2 180.8 750 180.3 745.8 174 745.4 170.6 742.5 170.6 739.8 167.1 735.9 168.6 738.4 170.5 736.2 172.1 740.2 180.5 740.5 181.4Z" path-identifier="BGD" id="path4241"></path>
    <path d="M323.3 209.7L323.1 208.8 322.9 209.4 323.3 209.7Z" path-identifier="BRB" id="path4243"></path>
    <path d="M499 87.1L497.9 87.6 501.8 90 502.7 91.2 505.8 92.5 506 92.5 506.2 92.4 505.9 91.3 506.1 91.1 506.8 90.5 506.8 90.6 506.9 90.3 507 89.4 507.1 89.1 506.5 88.8 506.5 88.6 505.7 88.6 506.1 87.4 502.1 86.7 502.2 86.9 502 86.8 501 87.2 501 87.1 499.9 86.7 499 87.1Z" path-identifier="BEL" id="path4245"></path>
    <path d="M241.1 194.3L240.9 195.4 240.6 197.5 240.1 200.5 241 200.5 241 200.2 243 197.7 243.2 196.3 243.5 192.4 243.7 192.1 241.9 194.1 241.4 193.7 241.1 193.8 241.1 194.3Z" path-identifier="BLZ" id="path4247"></path>
    <path d="M498.3 213.8L497.4 214.9 496.2 215 494.4 216.3 494.3 216.3 493.9 217.8 496.2 222.4 496.3 223.1 496.3 231.8 496.6 231.7 498.2 231.4 499.4 231.3 500.2 222.6 502.1 219 501.5 214.9 501.9 214.1 501.8 213.9 499.7 211.8 498.4 212.3 498.5 213.4 498.5 213.4 498.3 213.8Z" path-identifier="BEN" id="path4249"></path>
    <path d="M315.6 147.7L316 147.3 315.9 147.4 315.6 147.7Z" path-identifier="BMU" id="path4251"></path>
    <path d="M744.3 162.2L744.2 161.8 743.1 161.1 739.3 160.4 737.1 163.1 737 163.6 737 163.7 744 165.3 745.1 165.3 744.2 162.5 744.3 162.2Z" path-identifier="BTN" id="path4253"></path>
    <path d="M296.2 308.3L296.2 308.7 299.4 318 302.5 325.5 303.3 325.7 304.4 325.5 304.6 325.2 312.4 325.7 316.3 322.8 316.4 323.2 316.9 323.6 317.6 319.8 318.6 315.2 323.4 314.1 328.7 315.8 328.8 316.9 329.6 316.3 327 304.5 322.1 304.3 320.6 296.4 309 291.7 302.1 284.1 295.8 287.2 294.4 287.2 295.7 289.4 297.2 292.2 295.8 302.2 296.1 307.9 296.2 308.3Z" path-identifier="BOL" id="path4255"></path>
    <path d="M537.2 113.2L537.4 113.3 537.5 113.2 539.4 114.2 539.5 114.4 539.8 114.2 539.5 113.1 540.5 111.9 540.8 111.3 540.8 111.4 541.1 111.4 541.8 110.6 541.3 109 540.7 107 540.4 107.2 539.9 107.2 532.1 106.1 537.2 113.2 537.2 113.2Z" path-identifier="BIH" id="path4257"></path>
    <path d="M547.2 331.8L547.7 332.2 551.6 338.5 555.7 333.5 560.4 335.2 566.7 328.5 572.8 323.6 573.6 323.5 573.3 323 566.2 315.9 562.6 309.6 562.7 309.3 561.5 309.4 557.8 310.9 550.7 310.9 550.3 322.8 547.5 322.8 547.4 327.4 547.2 331.8Z" path-identifier="BWA" id="path4259"></path>
    <path d="M345.8 254.9L346.7 253.6 346 254.1 345.8 254.9ZM357.8 341.6L358 341.5 357.9 340.4 357.8 341.6ZM349.1 252L349.9 250.7 348 251.2 349.1 252ZM345.1 253.4L345.9 252.2 345.5 252.5 345.1 253.4ZM343.6 256.6L344.6 254 344.3 254.7 343.6 256.6ZM348.4 250.7L348.9 249.7 348.3 249.9 348.4 250.7ZM347.8 257.7L351.3 257 351.8 252.3 347.8 257.7ZM318.9 235.1L309.8 239 307.5 238.2 309 246.5 302.5 249.4 301 247.9 300.4 248 297.3 246.2 292.5 246.3 293.8 256.2 292.7 263.3 292.4 265.4 292.3 265.7 281.2 276.1 283.8 282.2 291.3 283.4 293.3 287 294.4 287.2 295.8 287.2 302.1 284.1 309 291.7 320.6 296.4 322.1 304.3 327 304.5 329.6 316.3 328.8 316.9 328.9 317 335.7 323.8 338.2 329.4 340.6 329.7 340.3 333.9 340.4 334.4 340.9 334.7 341.9 340.4 340.7 340.8 334.2 349.2 334 349.3 334.2 349.3 339.6 351.7 347.6 357.5 347.5 360.7 347.5 360.7 353.4 351.9 357.6 334.4 367.3 326.2 377.3 322.8 380.1 315.2 382.7 293.3 391.8 280.6 390.7 268.5 377.7 261 367.7 259.5 362.5 256.1 356.1 253.9 349.6 258.6 344.8 258.4 346.8 254.8 343.3 256.4 348.3 248.9 344.8 238.1 344.4 238.8 336.4 244.6 336.2 244.3 336 244.3 335.8 244.3 332.8 244.1 332.1 245.8 330.7 245.5 330.4 245.7 323.8 247.9 320.7 243.3 321.6 238.4 318.9 235 318.7 235 318.9 235.1Z" path-identifier="BRA" id="path4261"></path>
    <path d="M819.5 236L819.6 236.1 819.3 236.3 819.6 237.6 820 237.2 819.6 236 819.5 236ZM819.2 236L818.8 235.8 817.7 236.7 817 237 816.7 237 818.2 238.8 818.8 237.5 819.2 236 819.2 236Z" path-identifier="BRN" id="path4263"></path>
    <path d="M549.9 109.1L549.8 109.3 549.8 111.5 551.1 112.5 550.1 114.9 549.7 115.1 549.7 115.1 551 116 551.6 118 551.5 118.2 552.2 118.3 557.6 118.5 559.9 118.2 560 116.9 560.3 117.1 560.2 116.9 561.5 116.2 562.5 115.8 564.5 116.2 564.5 116.1 563.9 113.9 563.8 113.2 565.3 110.7 565.3 110.7 561.7 109.5 557 111.1 550.5 109.5 549.9 109.1Z" path-identifier="BGR" id="path4265"></path>
    <path d="M476 218.1L476.3 218.6 479.1 220.6 482.6 219.8 483.9 221.5 484 221.2 483.7 220.4 483.4 217.5 485.4 216.3 490.9 215.8 491.2 215.8 493.1 216.3 493.1 216.5 493.6 216.3 494.3 216.3 494.4 216.3 496.2 215 497.4 214.9 498.3 213.8 498.5 213.4 497.5 211.9 498.1 211.7 496.1 211 492.3 203.7 492.3 203.7 491 203.1 482.4 207.6 480.5 208.2 476.2 217.4 476 218.1Z" path-identifier="BFA" id="path4267"></path>
    <path d="M576.1 266.2L578.3 264 578.5 263.3 578.4 260.3 578.8 259.6 578.3 259.2 577.1 259.3 576.9 260.5 574.5 260.2 574.4 260.7 574.3 260.8 575 261.9 574.9 262.3 575.4 265.2 575.5 266.2 576.1 266.2Z" path-identifier="BDI" id="path4269"></path>
    <path d="M558 72L557 73.2 555.5 73 554.8 73.4 554.7 73.5 554.8 73.8 553.3 75.7 552.8 78.1 548.3 78.8 548.1 78.8 548.2 79 549.7 82 549.4 84.6 549.3 86 549.4 86.2 549.6 86.3 553.3 84.9 565.6 86.4 568.1 84.4 569.1 84.4 569.1 84.3 567.6 81 569.8 79.9 561.8 73.3 558.5 72.4 558.1 72.1 558 72Z" path-identifier="BLR" id="path4271"></path>
    <path d="M787 219.5L787.1 218.5 786.8 218.1 787 219.5ZM789 205.5L788.8 205.8 787.6 205.2 781.3 209 783.4 214.3 783.5 214.5 784.1 215.3 784.2 216.6 787.9 218.1 788.1 218.2 796.1 208.1 795.5 204.8 795.4 204.3 795.4 204.4 793.6 205.6 791.6 206.9 789 205.7 789 205.5Z" path-identifier="KHM" id="path4273"></path>
    <path d="M531.8 211.6L531.1 215.7 524.1 231 520.6 229.1 516.1 236.3 515.9 236.9 517.3 238.2 518.9 239.5 519.7 243.2 519.6 244.2 519.8 244.6 520.3 244.8 522.1 244.8 524 244.8 524.1 244.4 526.4 244.4 526.8 244.3 529.5 244.5 529.6 244.8 530.8 244.8 535.8 245.4 537.3 246.1 537.5 244.8 537.9 244.6 537.8 244.4 536.9 241.8 534.5 238.8 535.6 227.8 535.8 227.5 536 227 531.3 220.7 535.4 218.8 532.6 209.6 531.5 209.6 531.8 211.6Z" path-identifier="CMR" id="path4275"></path>
    <path d="M319.5 51.5L320.6 50.7 319.6 50.3 319.5 51.5ZM322.7 50.7L322.1 49.8 321.7 49.8 322.7 50.7ZM302.9 72L304.1 71.4 303.2 71.6 302.9 72ZM181.1 93.4L180.8 89.8 178 91.3 178.7 94.4 181.1 93.4ZM303.6 49.6L305.2 50.9 309.5 48.5 308.2 43.4 300.1 50.2 303.6 49.6ZM309.2 44.5L309.6 43.2 309.2 43.2 309.2 44.5ZM312.2 44.3L312 43.6 310.9 42.8 312.2 44.3ZM353.2 76.3L353.2 75.9 352.9 76.3 353.2 76.3ZM337.3 38.3L337.7 37.7 335 38.2 337.3 38.3ZM340.8 4L346.5 8 339.4 7.9 335 9.9 336.6 13 326.3 14.6 325.6 15.7 346.1 15 345.9 13.4 353.4 11.5 355.5 8.4 360.9 8.3 380.3 4.1 387 2.1 363.6 1 352.3 1.8 338.1 3.4 340.8 4ZM309.3 38.4L310.9 37.1 310.4 36.8 309.3 38.4ZM177.2 92.3L177.8 91.5 176.8 91.8 177.2 92.3ZM329.5 8.9L321.8 9.5 329.5 11.4 337.4 6.3 332.1 4.8 326.5 5 320.6 8.5 329.5 8.9ZM171.4 81.2L174.6 79.2 172.6 78.1 171.4 81.2ZM282.9 35.7L283.5 35.4 283.3 34.8 282.9 35.7ZM178.1 79.1L178.9 78.4 177.6 78.9 178.1 79.1ZM327 35.4L329.4 34.3 327.6 34.7 327 35.4ZM293.1 34L293.6 33.4 292.6 33.4 293.1 34ZM178.8 81L178.4 79.1 178.8 79.8 178.8 81ZM293.9 34L295.1 33.5 294.2 33.3 293.9 34ZM326.8 33.5L327.8 33.2 328.3 32.7 326.8 33.5ZM290.1 36.4L291.9 33.5 289.5 32.9 290.1 36.4ZM180 80.5L181.6 79.5 181.1 79.6 180 80.5ZM335.3 99.8L335.9 99.1 336.9 98.5 335.3 99.8ZM179.1 82.9L180.7 81.3 179 81.7 179.1 82.9ZM172 84.4L172.7 82.1 171.9 81.7 172 84.4ZM287.4 31L287.4 30.4 286.9 30.4 287.4 31ZM283.3 24.6L286.9 22.9 286.2 22.3 283.3 24.6ZM296.5 15.9L298.1 15.6 297 15.2 296.5 15.9ZM335.9 105L336.9 104.5 338.7 100.4 335.9 105ZM297.4 85L298.4 84.5 297.7 84.7 297.4 85ZM315.7 7.9L316.7 7.3 315.4 6.9 315.7 7.9ZM296.6 16.5L298.4 15.9 296 16 296.6 16.5ZM263.3 17.1L272 13.3 259.9 16.6 263.3 17.1ZM341 17.1L342.7 16.5 342.8 16.4 341 17.1ZM279.6 16.2L274.8 15.5 266.7 18.4 274.8 20.5 291.7 17 279.6 16.2ZM355.6 86L352.7 86.8 345.7 95.7 342.6 97.6 351.5 100.9 357.7 101.2 356.7 97.3 358.7 93.4 354 93.1 355.6 86ZM346.2 55.5L346.5 55.4 345.9 54.8 346.2 55.5ZM312.6 55.9L315.1 53.9 314.7 53.5 312.6 55.9ZM345.4 59.7L345.3 59.3 345.2 59.1 345.4 59.7ZM295.5 17.3L298.6 16.8 296.9 16.8 295.5 17.3ZM313.3 12.2L318.9 11 314.6 9.9 313.3 12.2ZM324.5 13.7L325.5 12.8 323 13.2 324.5 13.7ZM296.8 21.8L293.1 24.8 290.3 24 292.4 28.8 297.2 24.2 302 22.1 296.8 21.8ZM299.2 22.1L301.6 21.4 298.1 21.9 299.2 22.1ZM303.5 26.9L307 24.8 315.5 22 303.5 23.9 303.5 26.9ZM288.4 11.2L293.1 10.5 291.9 10 288.4 11.2ZM301.5 15.3L304.1 14.9 303.4 14.8 301.5 15.3ZM281.4 12.5L283 12.2 282.3 11.7 281.4 12.5ZM242.7 25.6L244 29 256 25.1 264 23.4 264.4 21.5 255.5 20.4 249.9 20.8 242.7 25.6ZM326.5 24.3L318.4 22.9 311.8 26.8 312.1 31.5 323.3 32.5 332.6 35.8 335.6 35.2 339 39.6 332.8 44.6 325.4 44.9 322.3 46.2 324.2 48.3 330.9 47.2 337.4 53.1 343.3 55.1 344.6 51 350.1 48.8 346.5 44.8 349 41.4 351.7 45.6 358.8 43 355.6 38.1 349.9 36.8 348.6 34.7 353.8 34.2 350.8 30.1 331.4 22.4 326.5 24.3ZM318.7 13.1L320.2 12.6 316.7 12.4 318.7 13.1ZM265.7 17.9L266.7 16.9 264.5 17.6 265.7 17.9ZM336.6 94L338 93.3 332.7 91.2 336.6 94ZM279.1 14.9L277.8 14.5 277.1 14.7 279.1 14.9ZM183.4 92.6L182.6 91.8 183.2 92.5 183.4 92.6ZM308 12.3L308.8 9.9 301.3 11.2 308 12.3ZM319.4 15L317.1 14.4 314.4 19.7 317.8 20.3 337.9 19.6 339.9 18.2 335.9 17.1 323.5 18 319.4 15ZM299.9 19.2L306.6 17.5 303.7 15.1 299.9 19.2ZM296.9 13.9L298.2 13.4 297.3 12.4 296.9 13.9ZM309.9 20.1L312.8 18.2 306.1 19.2 309.9 20.1ZM264.2 25.3L266.7 23.3 256.1 25.6 252.7 28 252.5 30.6 260.5 31.5 251 32.2 255.5 35.9 265.1 35.6 272 33.6 274 35.3 284.6 32.4 280.1 29.2 282.1 23.7 274.5 27.4 275.7 25.1 268.8 26.4 268.5 24.2 264.2 25.3ZM320.3 106L323.9 110.9 336.1 105.9 328.2 102.9 331.2 95.7 328.8 93.3 319 95.3 327.6 90.2 343.9 90 348.4 86.9 355.2 85 356.6 80.2 348.9 73.2 345 61.2 342 61.3 334.2 64.9 334.9 58.1 319.6 53 315.4 58.2 315.3 60.7 311.1 65 310.7 72.4 302.7 76.1 298.9 86 295.9 87.3 293.4 83.8 294.1 78 295.7 76 287.2 73.1 280.3 68.9 277 64.3 273.8 63.5 281 56 291.7 50.1 299 48.5 303.5 45.4 298.2 43.7 313.7 42.2 320.1 38.7 323.3 34.7 315.9 32.7 307.1 39.8 302.7 26.9 296.3 29.5 295 32.8 298.9 33.9 291.5 37.6 287.5 38.3 272.6 37.6 272 35.2 263.4 39.6 249.7 38.2 252.1 35.1 247.9 35 231.2 30.6 218.2 33.1 211.9 35.7 202.4 33.3 201.5 33.1 181.6 50.1 171.5 59.6 174.6 59.5 175.5 63.8 182.5 61.1 182.7 69.4 184.4 72.8 184.5 72.8 179.9 76.9 179.7 80.5 182.4 79.1 180.3 84.1 185.6 94 185.7 94.2 254.5 94.2 262.3 97.2 270.4 96.3 280.8 105.4 280 111.2 275.5 116.6 283.8 114.9 288.9 111 295.3 109.6 300.4 106.7 309 106.7 313.3 103 320 99.5 320.1 106.2 320.3 106Z" path-identifier="CAN" id="path4277"></path>
    <path d="M420.8 197.2L421.4 196.6 421.1 196.3 420.8 197.2ZM422.9 204L423 203.3 422.4 203.6 422.9 204ZM427.4 200.2L427.1 199.4 426.9 200 427.4 200.2Z" path-identifier="CPV" id="path4279"></path>
    <path d="M535.8 227.5L535.6 227.8 534.5 238.8 536.9 241.8 537.8 244.4 537.9 244.6 538.7 242.6 540.1 240.4 544.5 240.3 544.8 240.6 544.7 239.6 547.4 235.2 555.7 238.4 556.9 236.3 569.8 235.4 569.9 235.6 569.9 235.4 566.8 230.3 558.5 223.7 557 217.3 556.6 216.5 556.3 216.4 550.4 221.8 539 227 535.8 227.5 535.8 227.5Z" path-identifier="CAF" id="path4281"></path>
    <path d="M534.1 180.8L535.8 187.5 535.3 197.2 532.2 201 530 206.6 530.2 207.5 530.6 208.1 531 208.8 531.5 209.6 532.6 209.6 535.4 218.8 531.3 220.7 536 227 535.8 227.5 535.8 227.5 539 227 550.4 221.8 556.3 216.4 556.6 216.5 556.8 215.6 554.8 208.6 556.9 201.1 559.4 201.1 559 190.6 559 188.9 551.5 184.5 542.9 179.7 536.2 176.1 533.5 177.6 534.1 180.8Z" path-identifier="TCD" id="path4283"></path>
    <path d="M325.3 428.2L326 427.7 325.4 427.6 325.3 428.2ZM303.2 408.5L302.6 408.2 302.8 408.3 303.2 408.5ZM301.5 400.3L301.3 399.8 300.7 399.6 301.5 400.3ZM331.8 429L331 428.9 330.9 428.6 331.8 429ZM324.1 428.7L323.8 428 323 427.9 324.1 428.7ZM324.6 420.5L322.7 427.4 327.9 427.4 327.9 427.4 326 422.9 325.1 420.8 324.6 420.5ZM309.1 415.3L307.5 414.1 308.2 414.3 309.1 415.3ZM303.8 408.5L302.6 406.3 302.2 406.6 303.8 408.5ZM308.2 416.1L308.3 415.1 307.4 415.4 308.2 416.1ZM310.8 418.2L310.7 417.8 310.4 417.4 310.8 418.2ZM322.7 425.7L321.9 424.7 322.4 424.7 322.7 425.7ZM301.2 391.8L301.1 388.4 299.8 386.9 301.2 391.8ZM304.4 396.7L305.2 395.7 305 395.2 304.4 396.7ZM308 417.2L308.3 416.4 307.9 416.7 308 417.2ZM309 419.2L309 418.1 308.6 418.8 309 419.2ZM305.3 412.3L305.1 411.9 304.1 411.6 305.3 412.3ZM304.3 409.7L303 409.1 303.2 409.4 304.3 409.7ZM312.2 419.6L310.9 418.6 310.9 418.8 312.2 419.6ZM303.5 397.8L302.1 397 302 397.2 303.5 397.8ZM306.9 412.8L304.1 410.3 305.5 412.2 306.9 412.8ZM306.1 414L305.6 412.7 305.5 413 306.1 414ZM301.6 396.2L301.4 395.6 301.1 395.7 301.6 396.2ZM302.2 399.2L302.7 399 302.4 398.4 302.2 399.2ZM307.9 415.4L307.6 414.8 307.3 414.7 307.9 415.4ZM321.4 426.2L321.3 425.3 319.7 425.5 321.4 426.2ZM294.2 311.3L295.8 341.1 295.2 345.3 297.8 356.3 297.6 365.1 295.8 372.8 298.6 379 298.2 384.2 301.1 386.8 303.9 394.3 306.7 410.5 312.7 417.2 312.8 420.4 317.9 420.6 320.3 424.6 322.6 419.7 325.2 420 325.2 420 316.3 418.8 309.5 412.4 310.2 409.3 309.3 396.2 307 394.1 304.3 386.3 303.7 376 301.9 369.9 302 358 299.4 353.7 300.3 343.2 302.4 336.3 302 330.6 305 326.1 304.4 325.5 303.3 325.7 302.5 325.5 299.4 318 296.2 308.7 296.2 308.3 295.7 308.8 295.6 309.8 295.4 310.3 293.9 311 294.2 311.3Z" path-identifier="CHL" id="path4285"></path>
    <path d="M823.6 150.3L823.6 150 821.5 149.2 823.6 150.3ZM799.5 193.1L802.3 188.5 800.8 187 796.8 191.9 799.5 193.1ZM780.9 91.5L780.9 91.7 781.2 95.7 789.1 97.3 793.8 101.7 787.3 102.7 786.6 105.3 777.4 106.8 779.6 110.9 775.3 114.8 763.7 116.5 741.3 113.8 736.6 109.3 726.9 106.5 722.9 103.6 718.8 98.3 710.7 94.1 710.3 93.6 709.5 93.9 709.2 93.8 709 93.8 707.5 100.3 701.2 101.2 701.6 105.2 696.5 107.4 700.2 115.4 700.3 115.6 700.4 115.9 696.3 118.4 686.1 122.3 686.3 124.2 685.8 124.2 685.8 124.2 687.5 127.2 688.4 126.8 691.6 131.2 691.1 131.5 690.9 131.5 690.7 131.3 689.9 131.8 690.4 132.2 690.7 132 693.8 133.1 695 134.9 700.2 137.3 700.5 137.2 700.8 137.2 704.1 135.6 707.2 137.7 705 142 707.4 146.3 706.4 150.7 712 153.4 713.4 154.3 713.7 154.9 722.2 157.3 725.9 160.4 733.7 161.7 734.5 161.8 734.4 161.7 735.7 161 736.3 161.3 736.6 163.2 737 163.6 737.1 163.1 739.3 160.4 743.1 161.1 744.2 161.8 744.3 162.2 745.2 162.3 750.2 158.3 756.9 158.5 759.5 160.6 759.6 160.7 759.7 160.5 764.4 164.4 762.5 171.9 763.3 174.8 774.1 181.5 774.3 182.2 774.4 182.2 775.5 179.2 776.5 179.4 776.6 179.5 776.7 179.4 781.6 179.2 789.4 178.2 793.4 182.3 793.9 182.1 798.9 182.5 798.4 184.4 808.2 180.2 808.5 180.2 808.5 180.1 808.5 180.1 808.6 180.1 808.6 179.6 808.7 177.2 808.2 177.2 809.5 179.1 809.7 179.1 809.7 179.1 810.5 178.8 810.9 179 811 179.3 821.2 172.5 823.1 167.9 822.1 165.6 825.7 160.9 824.9 155.1 819.3 145.3 812.1 138.6 812.1 129.7 808 130.3 802.8 127 805.7 125.2 808.3 119.9 812.3 120.8 812 126.5 818.5 122.5 818.4 122.2 822.1 116.8 827.6 113.1 830.1 114.5 830.5 114.8 830.2 114.4 827 107 831.3 102.8 829.1 96.6 824.8 98.2 820.2 97.6 817.8 95.4 807.6 91.5 800 84.4 795.4 81.6 788.7 80 784.8 80.7 786.8 90.7 782.5 92.1 780.9 91.5Z" path-identifier="CHN" id="path4287"></path>
    <path d="M290.2 212.9L277.3 218.2 276.9 220.2 272.1 224.5 271.8 223.8 272.1 225.7 270.1 228.5 270.3 228.7 270.9 234.1 271.8 238.7 266.9 247.2 266.9 247.2 270.9 250.4 273.8 251 276.5 252 277 252.2 277.1 252.2 283.3 258 291.4 260 291.5 264.3 292.4 265.4 292.7 263.3 293.8 256.2 292.5 246.3 297.3 246.2 300.4 248 301 247.9 300.7 246.3 298.5 234.7 292.2 229.3 285.6 227.6 285.9 224.8 283.4 222.2 285 217.8 289.5 213.5 290.2 212.9Z" path-identifier="COL" id="path4289"></path>
    <path d="M617.7 291.7L617.3 291.1 616.9 291.1 617.7 291.7Z" path-identifier="COM" id="path4291"></path>
    <path d="M544.5 240.3L540.1 240.4 538.7 242.6 537.9 244.6 537.5 244.8 537.3 246.1 535.8 245.4 530.8 244.8 529.6 244.8 529.6 245.1 532.4 247.5 531.3 251.1 532.9 257.2 532 259 527.2 258.3 523.4 264.5 523.5 264.5 524.1 265.3 525.1 266.4 525.8 267.9 525.9 268 527 266.7 528.1 266 528.5 266.3 529 266.8 529 266.6 532.7 267.6 536.8 264.6 537.9 258.8 542 254 544.8 241.4 544.8 240.6 544.5 240.3Z" path-identifier="COG" id="path4293"></path>
    <path d="M248.6 216.1L248 218.8 253.4 221.9 255.8 225.2 256 225.9 255.7 224.9 257.2 220.9 256.7 220.7 256 219.5 255.7 219.5 254.5 216.8 254.4 216.5 252.8 217 251.5 216 248.6 216 248.6 216.1Z" path-identifier="CRI" id="path4295"></path>
    <path d="M529.2 106.9L528.8 106.1 528.5 106.5 529.2 106.9ZM537.5 113.5L536.5 113.2 538.9 114.2 539.7 114.9 539.7 114.7 539.6 114.6 539.5 114.4 539.4 114.2 537.5 113.2 537.4 113.3 537.5 113.5ZM533.7 102.1L530.3 105.4 528.8 104.6 526.3 105.2 526.1 105.2 528.2 105.6 533 111.5 536.9 113 537.2 113.2 532.1 106.1 539.9 107.2 540.4 107.2 540.3 107.1 540.6 106.2 541.2 106.2 539.6 104.1 539.5 103.9 539.5 104 536.9 104.2 536.3 103.8 534.5 102.6 533.7 102.1 533.7 102.1Z" path-identifier="HRV" id="path4297"></path>
    <path d="M260.2 182.6L261.1 182.1 260.8 181.1 260.2 182.6ZM254.6 181L263.4 178.6 263.3 180.1 274.1 185 274.4 187.1 283.9 186.2 270.7 179.5 262.6 177 254.6 181Z" path-identifier="CUB" id="path4299"></path>
    <path d="M580.6 140.2L581.2 137.7 580 137.5 580.6 140.2Z" path-identifier="CYP" id="path4301"></path>
    <path d="M526.2 94.8L526.8 95.2 529.9 94.2 531.8 94.9 533.8 95 534 95.4 534 95.3 537 93.3 538.5 92.5 538.5 92.5 538.3 92 533.6 89.7 533.8 90.3 528.6 88.3 528.2 88.3 528.1 88.4 527.1 88.2 521.5 90 525.9 94.5 526.2 94.8Z" path-identifier="CZE" id="path4303"></path>
    <path d="M515.4 76L514.6 75.4 515.1 75.6 515.4 76ZM519.1 76.7L519.3 76.2 518.4 75.7 519.1 76.7ZM516.8 73.7L515.8 75.2 517.3 75.1 516.8 73.7ZM519.4 72.8L517.9 73.6 520.7 76.1 519.4 72.8ZM514.6 75.8L516.2 70.9 516 69 512.3 75.2 512.3 75.8 514.2 76.1 514.3 76 514.6 75.8Z" path-identifier="DNK" id="path4305"></path>
    <path d="M613.5 216.3L614.3 214.8 614.1 214.6 613.2 214.4 614.5 211.8 613.8 210.8 612.7 211.8 611.9 211.4 611.9 211.4 611.6 211.8 610.2 213.9 613.1 216.3 613.5 216.3Z" path-identifier="DJI" id="path4307"></path>
    <path d="M290.3 193.8L293.2 192.3 299.8 191.7 297.4 189.3 290.7 188.2 290.6 188.2 290 190.6 290 193.5 290.3 193.8Z" path-identifier="DOM" id="path4309"></path>
    <path d="M231.7 255.1L231.6 251.9 230.7 251.6 231.7 255.1ZM230.7 253.4L230.8 252.6 230.2 252.7 230.7 253.4ZM233.3 253L233.3 252.6 232.5 252.7 233.3 253ZM234 254.3L234.3 253.4 233.6 253.5 234 254.3ZM236.5 254.9L237.2 254.1 236.8 254 236.5 254.9ZM263 261.6L263.6 261 263.5 260.4 263 261.6ZM266.7 247.5L264.6 248.7 260.7 258.8 262.7 262.7 262.7 262.7 269.6 261.6 276.1 256.8 276.8 252.3 277 252.2 276.5 252 273.8 251 270.9 250.4 266.9 247.2 266.7 247.5Z" path-identifier="ECU" id="path4311"></path>
    <path d="M584.6 151L574.4 150.1 571.3 152.3 560.3 150 560.1 149.7 560 152.4 560.3 157.4 561.4 179.2 561.5 180.8 563.2 180.8 579 180.8 586.9 180.8 590.9 177.1 590.7 176.8 580.3 156.3 585 161.6 587.2 156.8 587.4 156.6 586.1 153.6 585.3 151.4 585.1 151 585 150.7 584.6 151Z" path-identifier="EGY" id="path4313"></path>
    <path d="M239.1 205.2L238.7 205.8 238.3 206 236.9 207.4 237 207.5 242.9 209.3 243.2 208.4 243.2 208.5 242.3 206.6 241.5 206.7 239.8 205.6 239.2 205.2 239.1 205.2Z" path-identifier="SLV" id="path4315"></path>
    <path d="M519.5 244.3L519.1 246.7 518.4 248 519.8 248.3 519.6 248.6 524.1 248.6 524 247 524 244.8 522.1 244.8 520.3 244.8 519.8 244.6 519.6 244.2 519.5 244.3Z" path-identifier="GNQ" id="path4317"></path>
    <path d="M600.2 193.7L595.9 197.5 594.6 202.9 595 205.8 595 205.8 595 205.7 605.1 205.1 607 206.1 611.9 211.4 611.9 211.4 611.9 211.4 612.7 211.8 613.8 210.8 613.8 210.8 602.8 200.8 600.3 193.9 600.2 193.7Z" path-identifier="ERI" id="path4319"></path>
    <path d="M543.7 64.4L544.7 64 544.4 63.6 543.7 64.4ZM555.7 62.2L549.9 61.5 548.4 66.3 548.1 66.9 552.2 66.9 553.5 67.9 555.4 67.9 555.4 67.9 555.4 67.7 555.3 65.9 554.8 64.1 555.8 62.1 555.7 62.2Z" path-identifier="EST" id="path4321"></path>
    <path d="M611.9 211.4L607 206.1 605.1 205.1 595 205.7 595 205.8 595 205.8 590.9 216.7 589.8 216.7 587.4 227 590.6 230.5 593.6 236.3 594.1 236.9 594.1 237.2 604.2 240.7 605 239.9 610.9 239.1 611.1 238.9 611.1 238.9 619.7 236 628.1 226 616.7 222.7 612.7 217.5 613.5 216.3 613.1 216.3 610.2 213.9 611.6 211.8 611.9 211.4 611.9 211.4Z" path-identifier="ETH" id="path4323"></path>
    <path d="M347.2 419.9L350.5 417.9 348.7 416.9 347.2 419.9ZM405.7 427.7L402.6 425.1 402.4 425.5 405.7 427.7ZM344.2 419.6L343.6 417.4 344.6 417.8 344.2 419.6Z" path-identifier="FLK" id="path4325"></path>
    <path d="M476.7 54.9L475.7 53.8 475.5 54.2 476.7 54.9ZM476.8 54.5L476.5 53.8 476.3 53.9 476.8 54.5Z" path-identifier="FRO" id="path4327"></path>
    <path d="M991.7 310.8L993.1 307.7 991.4 308.1 991.7 310.8ZM994.9 306.7L998.4 304.2 995 305.6 994.9 306.7Z" path-identifier="FJI" id="path4329"></path>
    <path d="M536.7 60.3L537.3 60.3 537 59.7 536.7 60.3ZM542.9 60.6L543.8 59.7 543.5 59.9 542.9 60.6ZM534.3 34.7L534.9 34.9 539 36.5 543.6 43.7 543.7 43.8 546.4 44.9 538.7 53.5 543.7 60.1 554.6 58.9 554.7 58.9 561.6 52 556.4 46.6 554.8 39 550.7 35.1 551.7 34.8 551.3 34.6 545.1 33 541 35.7 534.6 34.6 534.3 34.7Z" path-identifier="FIN" id="path4331"></path>
    <path d="M515.7 118.1L515.5 113.8 514.8 114.1 515.7 118.1ZM497.7 87.7L494.5 91.2 487.8 93.5 488.1 95.2 480.9 95.2 480.6 97.4 486.5 100.2 487.4 111.8 487 111.8 490.9 113.5 491.5 114 495.3 114 495.4 114.3 495.7 114.1 496.3 114.3 496.1 114.6 496.3 114.6 497.5 114.8 498.6 114.9 499.9 114.8 499.6 114.4 501.6 111.5 506.6 112.7 510.6 110.8 510.7 110.7 510.8 110.6 510.8 110.6 510.9 110.6 511.1 110.6 510 105.5 509 104.1 509.6 103.8 509.3 103.4 509.3 98.9 510.6 98.8 510.8 98.6 510.6 98.3 511.5 94 507.8 92.7 507.5 92.7 507 92.6 506.5 92.7 506.5 92.6 506 92.5 505.8 92.5 502.7 91.2 501.8 90 497.9 87.6 497.7 87.7Z" path-identifier="FRA" id="path4333"></path>
    <path d="M336 244.3L336.2 244.3 336.4 244.6 344.4 238.8 344.4 238.8 342.4 235.7 338.7 233.3 337.8 234.2 337.4 234.5 337.2 241.5 336.5 244 336.1 244.2 336 244.3Z" path-identifier="FRA" id="path4335"></path>
    <path d="M72.3 309.5L71.1 308.3 70.8 308.5 72.3 309.5Z" path-identifier="PYF" id="path4337"></path>
    <path d="M524 244.8L524 247 524.1 248.6 519.6 248.6 519.5 248.4 516.5 253.8 522 262.8 522.8 263.6 523.4 264.5 527.2 258.3 532 259 532.9 257.2 531.3 251.1 532.4 247.5 529.6 245.1 529.6 244.8 529.5 244.5 526.8 244.3 526.4 244.4 524.1 244.4 524 244.8Z" path-identifier="GAB" id="path4339"></path>
    <path d="M444.8 208.3L445.7 208.8 444.1 208.7 444.2 209.7 450.6 207.8 444.8 207.9 444.8 208.3Z" path-identifier="GMB" id="path4341"></path>
    <path d="M585.3 150.2L585 150.6 585 150.7 585 150.7 585.1 151 585.4 150.8 585.3 150.6 585.8 150 585.6 149.8 585.3 150.2Z" path-identifier="PSE" id="path4343"></path>
    <path d="M595 111.8L595.9 112.6 600.4 116.9 600 117.6 602.6 117.9 602.7 117.5 605.3 118.8 605.3 118.9 605.5 118.8 607.1 118.5 609.1 118.4 609.2 118.3 609.8 117.8 612.2 117.4 612.5 116.6 612.5 116.5 612.4 116.3 610.4 114.6 599.7 112.4 594.9 111.8 595 111.8Z" path-identifier="GEO" id="path4345"></path>
    <path d="M525.1 78.4L524.7 78.6 525.8 79 525.8 79 525.8 78.9 525.9 78.8 525.1 78.4ZM512.3 76.1L513.6 79 512.1 79.5 509.1 80.9 509.1 80.9 508.8 84 507.3 85.3 506.4 88.5 506.5 88.6 506.5 88.8 507.1 89.1 507 89.4 506.9 90.3 506.8 90.6 506.9 91 507.4 91.5 507.5 92.3 507.5 92.7 507.8 92.7 511.5 94 510.6 98.3 510.8 98.6 511 98.5 513 98.6 512.8 98.2 515 98.4 515.7 98.7 515.8 98.8 523.9 98.7 526.1 95 526.2 94.8 525.9 94.5 521.5 90 527.1 88.2 528.1 88.4 528.2 88.3 528.4 87.6 527.4 85.2 526.4 81.6 526 79.6 525.9 79.5 523 77.6 514.2 76.2 514.3 76 514.2 76.1 512.3 75.8 512.3 76.1Z" path-identifier="DEU" id="path4347"></path>
    <path d="M484 221.2L484.1 221.5 484.3 225.8 483.6 226.6 483.3 235.3 483.2 235.4 489.4 235 494.7 232.4 495.1 232.1 493.3 229.8 491.3 215.9 491.2 215.8 490.9 215.8 485.4 216.3 483.4 217.5 483.7 220.4 484 221.2Z" path-identifier="GHA" id="path4349"></path>
    <path d="M558 130L557.9 129.3 557.5 129.4 558 130ZM547 130.1L547.3 129.7 546.8 129.4 547 130.1ZM544.6 124.5L544.2 124.1 543.3 123.3 544.6 124.5ZM561.5 125.8L562 125.6 560.8 124.5 561.5 125.8ZM566.1 135.9L566.3 134.4 565.8 135.1 566.1 135.9ZM556.7 129.1L553.6 125.9 553.4 126.5 556.7 129.1ZM556.3 120.6L556.5 120.1 556.2 119.9 556.3 120.6ZM551.5 118.2L551.2 118.2 550.9 118.7 548.6 119.5 546.9 119.7 546.6 119.7 546.6 119.9 545 123.5 544.4 123.5 544.5 123.5 549.1 131.7 553.5 133.8 552.1 130.4 551.8 120.5 555.4 121.7 559.9 119.8 559.8 120.1 560.5 119.5 560.4 118.7 560.7 117.2 560.3 117.1 560 116.9 559.9 118.2 557.6 118.5 552.2 118.3 551.5 118.2Z" path-identifier="GRC" id="path4351"></path>
    <path d="M456.4 16.9L456.6 16.6 455.9 15.2 456.4 16.9ZM452.7 19.9L452.1 19.2 451.9 19.6 452.7 19.9ZM459.1 9.5L460 9.3 459.9 9 459.1 9.5ZM383 58.5L383.8 58.4 383.3 58.1 383 58.5ZM386 58.3L387.3 57.8 386.2 58.1 386 58.3ZM388.5 60L389.2 59.4 388.8 59.4 388.5 60ZM392.4 60.8L393.4 60.4 391.4 60 392.4 60.8ZM391.5 61.2L392 60.8 391.5 60.6 391.5 61.2ZM404.1 47.7L403.8 46.5 403.3 46.2 404.1 47.7ZM358.4 13.4L358.2 13.1 357.5 13.2 358.4 13.4ZM456.1 12.3L456.2 12.1 455.5 12.1 456.1 12.3ZM458.3 12.6L459 12.5 459.4 12.2 458.3 12.6ZM456.4 10.1L456.7 9.9 457.1 9.7 456.4 10.1ZM384.7 29.1L386 28.6 384.9 28.5 384.7 29.1ZM414.4 2.9L413.4 1.8 410.7 1.8 414.4 2.9ZM383.1 29.5L383.5 29.4 382.6 29.1 383.1 29.5ZM360.2 13.3L362 13.2 361 13.1 360.2 13.3ZM380.6 34.2L380.8 31.3 379.8 31.5 380.6 34.2ZM448.2 25.1L447.8 24.3 445.8 24.1 448.2 25.1ZM384.8 28.1L384.4 27.8 384.3 27.8 384.8 28.1ZM447.2 26.6L443.6 24.6 443.2 24.7 447.2 26.6ZM436.6 0L412.6 1.2 417.2 2.2 405.4 2.1 406.9 3.2 398.8 3.9 395.1 2.6 372.9 6.5 374.1 8.8 362 10.3 362.3 16.4 372.3 15.7 376.8 16.3 382 21.6 379.8 28.2 387 28.4 388.5 31.3 382 30 387.2 33.2 381.6 38.4 377.3 44.2 382.7 47.4 378.5 49.8 381.8 51.6 382.8 58 388.9 57.2 389.7 60.6 393.3 59.9 396.9 52.7 401 50.7 407.1 44.1 411.7 43.9 421.4 38.9 442.5 33.5 444.3 31.9 438 29.6 440.1 28.1 446 29.9 442.1 24.1 444.4 22.2 449.5 23 455 20.5 450.8 18.1 456.6 13.2 451.1 12.5 454.3 9.7 470.7 3.8 459.9 4.2 435 3.4 455.3 2 436.6 0Z" path-identifier="DNK" id="path4353"></path>
    <path d="M316.7 213.1L317.2 212.7 317 212.3 316.7 213.1Z" path-identifier="GRD" id="path4355"></path>
    <path d="M318.6 199.5L319.4 199.3 318.5 198.9 318.6 199.5Z" path-identifier="GLP" id="path4357"></path>
    <path d="M231.5 205.2L233.1 206.5 233.8 206.8 236.2 207.1 236.9 207.4 238.3 206 238.7 205.8 239.1 205.2 239.2 205.2 239.4 204.9 239.7 203.8 240 203.1 242.9 201 242.4 200.7 241.9 200.3 241.1 200.6 241 200.5 240.1 200.5 240.6 197.5 240.9 195.4 241.1 194.3 240.8 194.3 235.8 195 236.7 199.9 231.4 202.5 231.1 204.8 231.5 205.2Z" path-identifier="GTM" id="path4359"></path>
    <path d="M516.3 241.4L516.4 239.7 516.1 240.6 516.3 241.4ZM452.8 211.2L450.5 214.6 449.1 216.4 449 216.5 451.3 219.2 452.4 220 453.8 222.5 453.9 222.6 457.9 219.5 461.4 221.8 462.2 224.4 462.5 224.4 462.5 224.4 463.9 224.1 465.8 228.6 467.3 227.2 467.6 227.4 467.8 227.2 468.4 224.4 468.9 219.2 469 219 469.1 218.7 466 211.7 464 213 459.3 211.9 459.5 211.8 459.1 211.7 456.7 212.1 454.8 211.5 454.7 211 452.8 210.9 452.8 211.2Z" path-identifier="GIN" id="path4361"></path>
    <path d="M445 212.5L449.1 213.2 448 214.1 448.9 216.5 449.1 216.4 450.5 214.6 452.8 211.2 452.8 210.9 452.2 210.9 447.3 211.7 445.8 211.6 444.4 212 445 212.5Z" path-identifier="GNB" id="path4363"></path>
    <path d="M318.7 235L318.9 235 321.6 238.4 320.7 243.3 323.8 247.9 330.4 245.7 330.7 245.5 330.4 245.3 328.4 240.9 327.4 241 328.7 234.1 328.9 233.8 328 231.6 323 225.5 321.3 224.3 321.2 224.3 319.5 226.6 319.8 229.4 316.9 232.6 318.7 235Z" path-identifier="GUY" id="path4365"></path>
    <path d="M287.3 191.4L287.2 191 286.2 190.6 287.3 191.4ZM290.3 188.2L288 191.2 286.9 192.3 289.6 193.1 290 193.5 290 190.6 290.6 188.2 290.3 188.2Z" path-identifier="HTI" id="path4367"></path>
    <path d="M239.2 205.2L239.8 205.6 241.5 206.7 242.3 206.6 243.2 208.5 243.4 208.7 244.4 208.5 244 209 244.7 209.8 244.6 209.9 246.3 207.4 257 203.4 256.8 203.3 252.2 200.2 243 201.2 242.9 201 240 203.1 239.7 203.8 239.4 204.9 239.2 205.2Z" path-identifier="HND" id="path4369"></path>
    <path d="M809.3 179.3L809.5 180.3 811.2 180.3 811 179.3 810.9 179 810.5 178.8 809.7 179.1 809.7 179.1 809.3 179.3Z" id="path4371"></path>
    <path d="M547 96.1L543.7 95.5 537.8 98.1 534.9 97.2 534.8 97.3 534.6 97.4 534.6 98.2 533.3 98.1 532.9 100.4 532.4 100.9 532.8 100.9 533.2 101.4 533.2 101.6 533.7 102.1 534.5 102.6 536.3 103.8 536.9 104.2 539.5 104 539.5 103.9 540.1 103.7 541.3 103.1 542.7 103.1 543.1 103.3 543.3 103.1 548.5 98 548.8 97.7 549.1 97.5 549 97.3 548.7 96.9 548.4 97 547.4 96 547.1 96 547 96.1Z" path-identifier="HUN" id="path4373"></path>
    <path d="M445.8 43.3L439.5 46.4 452.4 49.7 460 47.7 462.2 45 457.7 42 447.4 44.6 445.8 43.3Z" path-identifier="ISL" id="path4375"></path>
    <path d="M758.7 230L758.5 228.4 758.1 228.6 758.7 230ZM700.4 137.5L696.2 140.1 692.2 144.8 696.4 148 694.5 149.4 689.7 161.5 684.9 162 683.8 165.4 689 172 688 173.5 681.4 175.1 681.4 175.2 687.8 177.8 688.4 184.3 691.8 184.2 693 179.9 695.2 183.6 696.2 191.3 699 200.3 709.2 223.1 713 225.2 718.3 218.5 718.8 200.5 720.1 200.7 730.6 188 733.4 187.5 735.1 182.4 740.3 181 740.2 180.5 736.2 172.1 738.4 170.5 735.9 168.6 739.8 167.1 742.5 170.6 745.4 170.6 745.8 174 750 180.3 750.2 180.8 750.4 180.7 754.5 171 759.9 164.3 759.6 161.1 759.6 160.7 759.5 160.6 756.9 158.5 750.2 158.3 745.2 162.3 744.3 162.2 744.2 162.5 745.1 165.3 744 165.3 737 163.7 737 163.6 736.6 163.2 736.3 161.3 735.7 161 734.4 161.7 734.5 161.8 734.7 161.9 734.8 166.4 717.3 161.9 711.6 158.7 713.1 154.4 713.4 154.3 712 153.4 706.4 150.7 707.4 146.3 705 142 707.2 137.7 704.1 135.6 700.8 137.2 700.5 137.2 700.4 137.5ZM754.6 210.1L754.3 211.7 754.8 212.1 754.6 210.1Z" path-identifier="IND" id="path4377"></path>
    <path d="M837.8 285.8L837.6 285.5 837.1 286.1 837.8 285.8ZM833.1 282.5L831.9 283.8 832.7 284.8 833.1 282.5ZM847 282.4L847.3 281.5 847.1 281 846.6 280.7 846.2 281 842.9 282.9 846.6 282.6 847 282.4ZM842.1 278.9L842 278.4 841.6 278.6 842.1 278.9ZM823.3 279.4L822.2 278.4 821.5 279.1 823.3 279.4ZM845 278.7L844.4 278.9 844.1 278.7 845 278.7ZM886.5 278.8L885.9 278.2 885.6 278.9 886.5 278.8ZM845.8 278.1L845.3 278.5 847.2 278.8 845.8 278.1ZM855.9 278.1L854.9 278 855.1 278.3 855.9 278.1ZM827.8 278.7L823.4 280.9 830.4 279.4 827.8 278.7ZM841.3 278.1L839.1 279.7 837.7 280.5 841.3 278.1ZM860.9 277.4L860.8 277.1 860.4 277.8 860.9 277.4ZM851.8 276.3L849.9 276.5 850.1 277.3 851.8 276.3ZM866.2 274.8L864.5 277.7 865.8 276.7 866.2 274.8ZM793.8 271.2L794.3 275.6 801.3 276.4 815.9 279.7 816.9 276.9 793.8 271.2ZM834.6 272.6L834.7 270.4 834.4 271.8 834.6 272.6ZM875.3 270L873.9 270.9 874.6 272.3 875.3 270ZM783.2 269.5L782.6 268.8 782.4 269 783.2 269.5ZM838.9 268.1L839.2 269.4 839.3 268.6 838.9 268.1ZM840.9 268.8L840.2 268.2 840.1 269.2 840.9 268.8ZM842.3 264.7L842.3 265.5 842.5 265.5 842.3 264.7ZM857.4 263.2L856.2 263.7 856.4 264 857.4 263.2ZM853.2 261.7L850.8 262.6 852.7 264.2 853.2 261.7ZM861.1 260.9L856.3 263 864.6 263.5 861.1 260.9ZM778 262.5L778 261.7 777.5 260.8 778 262.5ZM851.1 259.6L850.5 258.5 850.8 259.6 851.1 259.6ZM863.4 258.1L862.7 257.4 861.5 257.9 863.4 258.1ZM848.1 257.4L846.2 257.9 849 257.9 848.1 257.4ZM794.2 257.5L793.7 260.8 795.3 261.8 794.2 257.5ZM843 256L843.1 256.6 844 256 843 256ZM774.4 256.3L773.6 257.2 774.3 257.6 774.4 256.3ZM865.2 256.1L865 254.7 864.3 254.9 865.2 256.1ZM878 253.9L880.3 255.7 879.2 254.2 878 253.9ZM892.3 281.3L892.8 274.1 892.6 273.9 893.6 260.2 893.1 260.2 885.3 257 879.2 261.3 874.6 256.2 866 254.6 868.1 258.3 873.1 259.1 869.6 262.3 870.4 265 873.5 264.3 882.1 267.6 887.1 276.5 886.7 278.3 891.8 281 892.3 281.3ZM789.7 252.9L789.2 252.9 789 253.4 789.7 252.9ZM790.4 252.4L789.7 252.2 789.8 252.7 790.4 252.4ZM784.3 248.6L784.1 249.3 785.2 249.3 784.3 248.6ZM785.4 248.4L784.6 248.1 784.8 248.5 785.4 248.4ZM789.9 247.9L788.9 248.3 789.7 249.1 789.9 247.9ZM784 247.7L783.8 246.9 782.5 246.6 784 247.7ZM848.2 246.3L846.3 248 834 249.6 833.4 254.6 830.6 263.4 834.5 269.9 836 260.2 842 254.7 835.8 256.3 834.1 253.8 842.4 250.3 844.3 251 848.2 246.3ZM781.5 246.3L780.8 245.6 781 246.2 781.5 246.3ZM856 248.3L857 253.4 858.8 247.4 856 248.3ZM857.6 245.2L858.6 244 857.8 243.5 857.6 245.2ZM765.7 242.9L764.7 242.3 764.5 242.7 765.7 242.9ZM850.5 240.7L850 240.2 850 240.7 850.5 240.7ZM800.6 239.3L799.3 238.9 799.6 239.4 800.6 239.3ZM804.1 245.4L802.7 247 803.3 254.6 807.8 261.8 810.3 263.2 822.2 263.3 826.8 253 827.5 249.4 830.6 248.4 827.7 245.8 825.6 240 826.5 238.5 826.7 238.3 821 239.2 820.9 242 817.1 247.1 814 246.8 807.1 249.1 804.3 245.1 804.1 245.4ZM853 238.8L853.1 237.3 852.6 237.8 853 238.8ZM765.3 234.7L763.1 235.4 770.1 244 772.6 245.5 779.4 259.3 783.1 264.6 791 270.5 793.2 268.2 789.4 255.5 786.2 252.6 787.5 250.9 781.2 246.5 768.6 235.2 765.3 234.7Z" path-identifier="IDN" id="path4379"></path>
    <path d="M611 131.8L611 131.9 615.8 136.1 618.1 145.9 624.6 155.1 624.6 155.1 633.8 161.9 645.3 164.7 648.5 164.2 650.4 168.6 662.4 170.3 662.6 170.5 664.5 160.5 660 156.9 658.4 155.4 659.2 154.1 660.1 150.7 656.1 137.1 656 136.8 655.8 136.6 655 133.4 639.7 128.6 635.2 131.1 635.7 132.2 635.7 132.6 628 133.1 621.2 128 621.1 127.5 618.7 125 617.5 123.5 615.3 125.2 614.7 126.1 614.7 126.1 614.2 126 613.7 126.2 613.7 126.2 611.7 125.7 609.9 123.7 609.7 123.6 609.6 123.6 609.5 127.9 609.4 129.3 611 131.7 611 131.8Z" path-identifier="IRN" id="path4381"></path>
    <path d="M596.6 144.1L596.7 144.1 597.7 146.3 598.1 147 598.5 147.8 600.4 148.3 609.1 152.6 612.3 156.7 614.4 157.5 616.4 156.6 617.2 157 619.5 157.8 619.5 157.8 622.3 154.7 623 154.9 623.3 154.8 624.5 155.2 624.6 155.1 618.1 145.9 615.8 136.1 611 131.9 611 131.8 610.6 131.6 609.1 131.2 607.9 131.5 605.2 131.6 604.6 131.9 604.6 132 602.1 135.4 602.5 136.1 600.4 141.8 596.6 144.1Z" path-identifier="IRQ" id="path4383"></path>
    <path d="M614.5 157.6L616.7 158.9 617.4 158.6 619.5 157.8 617.2 157 616.4 156.6 614.4 157.5 614.5 157.6Z" id="path4385"></path>
    <path d="M474.4 75.4L470 82.7 476.6 83.1 478 77.6 474.4 75.4Z" path-identifier="IRL" id="path4387"></path>
    <path d="M480.2 78.4L481.1 78.1 480.8 77.5 480.2 78.4Z" path-identifier="IMY" id="path4389"></path>
    <path d="M586.7 145.6L586.5 145.8 586.3 147.5 585.7 149.6 585.6 149.8 585.8 150 585.3 150.6 585.4 150.8 585.1 151 585.3 151.4 586.1 153.6 587.4 156.6 587.5 156.5 587.5 156.4 588.3 150.7 588.2 146.4 588.3 146.3 588.2 146.2 588.2 145.6 588.2 145.3 588.2 144.5 588.1 144.5 587.9 144.4 587.8 145 586.7 145 586.7 145.6Z" path-identifier="ISR" id="path4391"></path>
    <path d="M532 133.4L532.8 128 525 128.8 525.4 130.4 532 133.4ZM515.1 126.1L516.9 119.3 515.6 118.8 515.1 126.1ZM518.1 101.2L518.1 101.9 509.7 104 509.6 103.8 509 104.1 510 105.5 511.1 110.6 511.8 110.4 518 110.2 518.8 113.2 536.9 125.5 536.5 120.8 528.1 114.2 523.3 108.8 526.8 104.8 526.6 104.9 526.8 104.5 526.3 103.2 526.4 102.2 526.4 102 525.6 101.8 523.1 101.4 518.4 100.9 518.1 100.9 518.1 101.2ZM523.6 110.2L523.6 110 523.8 109.9 523.6 110.2Z" path-identifier="ITA" id="path4393"></path>
    <path d="M469 219L468.9 219.2 468.4 224.4 467.8 227.2 467.6 227.4 467.7 227.6 467.9 231.3 470.5 232.9 470.2 237.8 470.5 237.8 478 235.1 478.4 234.7 483.4 235.3 483.3 235.3 483.6 226.6 484.3 225.8 484.1 221.5 484 221.2 483.9 221.5 482.6 219.8 479.1 220.6 476.3 218.6 476 218.1 475.6 218.1 469.8 218.2 469.3 219 469 219Z" path-identifier="CIV" id="path4395"></path>
    <path d="M274.7 194.7L272 192.3 271.5 192.8 274.7 194.7Z" path-identifier="JAM" id="path4397"></path>
    <path d="M858.9 143.9L868.5 137.5 863.9 121.6 859.1 117.6 858.2 120.6 861.2 126.4 859.4 131.9 855.8 135.7 848.6 136.9 845.2 140.9 849.9 141.1 856 139.7 858.9 143.9ZM855.2 141.5L855.2 140.2 854.8 141.1 855.2 141.5ZM845.9 146.3L849.6 150.6 849.2 146.7 844.6 142.3 843.2 144.4 845.9 146.3ZM857.5 118L859.4 114.3 864.4 116.4 867.4 111.9 864.3 109.7 856.8 107.4 853.4 105.2 857.5 118ZM852.4 146.2L855.7 142.6 851.8 141.3 852.4 146.2ZM858.9 129.6L858.6 127.9 858.5 128.4 858.9 129.6ZM844.9 147.9L845.3 147.4 844.6 146.9 844.9 147.9ZM848.9 154.2L849 153.7 848.2 153.8 848.9 154.2ZM841.1 146.6L841.4 146.4 840.9 145.9 841.1 146.6Z" path-identifier="JPN" id="path4399"></path>
    <path d="M587.6 156.4L587.6 156.4 587.7 156.5 587.6 157 587.6 157 590.7 157.6 593.5 151.1 598.4 147.8 598.5 147.8 598.1 147 597.7 146.3 596.7 144.1 596.6 144.1 596.5 144.2 592.4 147 591.7 147.5 588.8 146.1 588.3 146.3 588.2 146.4 588.3 150.7 587.5 156.4 587.6 156.4Z" path-identifier="JOR" id="path4401"></path>
    <path d="M676 115.3L675.8 115.3 682.1 114.5 681.9 112.9 694.6 113.4 699.9 115.4 700.3 115.6 700.2 115.4 696.5 107.4 701.6 105.2 701.2 101.2 707.5 100.3 709 93.8 709.2 93.8 708.9 93.5 694.2 88.6 688.6 88.3 682 82.6 675.2 78.1 671.4 79.6 665.6 78.8 655.3 74.2 640.7 78.8 639.3 78.6 642.9 88.3 631.4 87.7 625.7 89 622.3 86.3 616.8 85.8 608 96 616.4 102.5 616.3 102.3 624.1 100.5 626.1 105.1 620.4 108.1 624.2 112.6 628.3 113.9 628.2 116.9 628.3 116.9 631.8 115 634 115.9 637.6 118.2 637.8 118.2 634.8 106.7 651.6 111.5 654.5 111 669.4 118.9 675.7 115.5 676 115.3Z" path-identifier="KAZ" id="path4403"></path>
    <path d="M603.6 266.7L604.1 266.6 606 262.4 609.8 257.7 610.2 257.2 608.6 251.8 608.5 242.7 611.1 238.9 611.1 238.9 610.9 239.1 605 239.9 604.2 240.7 594.1 237.2 594.1 236.9 593.4 236.9 592.8 236.9 591.5 236.9 589.6 237 588.5 238.2 588.7 238.3 591.5 245.1 589.8 249.2 588.4 253.3 588.4 255 588.7 255 598.9 261.5 598.9 263.1 603.3 266.9 603.6 266.7Z" path-identifier="KEN" id="path4405"></path>
    <path d="M662.3 411.7L667.3 410.2 664.7 409.6 662.3 411.7Z" id="path4407"></path>
    <path d="M43.3 246.3L43 245.8 42.7 245.8 43.3 246.3Z" path-identifier="KIR" id="path4409"></path>
    <path d="M831.3 126.7L827.6 124.6 829.5 121.8 830.8 115.3 831 115.2 830.9 115.1 830.7 114.9 830.5 114.8 830.1 114.5 827.6 113.1 822.1 116.8 818.4 122.2 818.5 122.3 823.9 126.8 823.6 129.3 828.1 129.6 828.2 129.5 828.8 127.9 831.2 127.9 831.4 126.9 831.3 126.7Z" path-identifier="PRK" id="path4411"></path>
    <path d="M833.6 144.7L835 144.3 833.4 143.8 833.6 144.7ZM828.2 129.5L838.1 138.4 835.9 131.2 831.4 126.9 831.4 126.9 831.2 127.9 828.8 127.9 828.2 129.5 828.2 129.5Z" path-identifier="KOR" id="path4413"></path>
    <path d="M619.9 157.9L622 158.2 622.8 159.6 624.8 159.6 624.8 159.6 623.7 157.4 622.9 154.9 623 154.9 622.3 154.7 619.5 157.8 619.5 157.8 619.9 157.9Z" path-identifier="KWT" id="path4415"></path>
    <path d="M676.1 115.2L678.4 117.7 683 120 678 121.6 678 121.7 678.1 121.8 673.9 122.5 676.5 123.9 685.4 124.2 685.8 124.2 686.3 124.2 686.1 122.3 696.3 118.4 700.4 115.9 700.3 115.6 699.9 115.4 694.6 113.4 681.9 112.9 682.1 114.5 675.8 115.3 676 115.3 676.1 115.2Z" path-identifier="KGZ" id="path4417"></path>
    <path d="M771.9 186.1L771.9 186.4 775.6 194.5 783.7 192.6 786.5 195.6 789.6 205.2 789 205.5 789 205.7 791.6 206.9 793.6 205.6 795.4 204.4 795.4 204.3 795.3 204 795.6 202.5 786.3 191.3 783.6 184.5 777 180.1 776.6 179.5 776.5 179.4 775.5 179.2 774.4 182.2 774.3 182.2 774.3 182.2 773.5 183 771.9 186.1 771.9 186.1Z" path-identifier="LAO" id="path4419"></path>
    <path d="M541.3 72.3L545.6 71.2 554.4 73.5 554.7 73.5 554.8 73.4 555.5 73 557 73.2 558 72 558.1 72.1 558.2 72 557.8 70.9 555.9 67.9 555.4 67.9 555.4 67.9 553.5 67.9 552.2 66.9 548.1 66.9 548.1 66.9 547.6 69.5 544 67.3 541.3 72.1 541.3 72.3Z" path-identifier="LVA" id="path4421"></path>
    <path d="M588.6 140.2L587.5 142.7 586.8 145 586.7 145 587.8 145 587.9 144.4 588.1 144.5 588.6 144.1 590.2 141 590.2 140.7 588.5 140 588.6 140.2Z" path-identifier="LBN" id="path4423"></path>
    <path d="M565.7 347.5L568.4 350.8 572.5 346.6 570.5 344.1 565.7 347.5Z" path-identifier="LSO" id="path4425"></path>
    <path d="M462.4 224.8L460.7 227.6 460.1 228 459 229.5 459.2 229.7 468.2 237 469.7 237.7 470.2 237.8 470.5 232.9 467.9 231.3 467.7 227.6 467.6 227.4 467.3 227.2 465.8 228.6 463.9 224.1 462.5 224.4 462.5 224.4 462.4 224.8Z" path-identifier="LBR" id="path4427"></path>
    <path d="M517.1 154.6L518.8 158.6 517.7 167.4 523.8 173.3 525 175.9 529 176.9 529.5 177.1 531.4 178.8 533.5 177.6 536.2 176.1 542.9 179.7 551.5 184.5 559 188.9 558.9 187.2 559.9 187.3 561.7 187.2 561.6 185.2 561.5 180.8 561.4 179.2 560.3 157.4 560 152.4 560.1 149.7 559.9 149.1 552.3 145.7 547.3 146.9 545.5 153.4 543.5 154 536 151 533.5 148 523.2 145 522.9 144.8 523.1 146.9 519.3 150.1 518.7 153.8 517.8 154.2 517.1 154.6Z" path-identifier="LBY" id="path4429"></path>
    <path d="M515.9 100.3L515.9 100.3 516 100 515.9 100 515.7 99.7 515.7 99.6 515.6 99.9 515.7 100.2 515.6 100.3 515.9 100.3Z" path-identifier="LIE" id="path4431"></path>
    <path d="M548.1 78.8L548.3 78.8 552.8 78.1 553.3 75.7 554.8 73.8 554.7 73.5 554.4 73.5 545.6 71.2 541.3 72.3 541.4 72.6 542.2 75.8 539.1 76.7 538.6 77.2 538.7 77.2 539.4 76.7 539.6 76.6 540.4 76.5 539.4 77.1 539.1 77.3 539.5 77.3 544.5 77.6 548 78.6 548.1 78.8Z" path-identifier="LTU" id="path4433"></path>
    <path d="M506.5 92.6L506.5 92.7 507 92.6 507.5 92.7 507.5 92.3 507.4 91.5 506.9 91 506.8 90.6 506.8 90.5 506.1 91.1 505.9 91.3 506.2 92.4 506 92.5 506.5 92.6Z" path-identifier="LUX" id="path4435"></path>
    <path d="M808.5 180.2L808.7 180.4 808.7 180.4 808.6 180.1 808.6 180.1 808.5 180.1 808.5 180.1 808.5 180.2 808.5 180.2Z" id="path4437"></path>
    <path d="M545.1 117L545.2 118.2 545.7 119 546.6 119.6 546.6 119.7 546.9 119.7 548.6 119.5 550.9 118.7 551.2 118.2 551.5 118.2 551.6 118 551 116 549.7 115.1 549.7 115.1 549.6 115 546.9 115.8 546.8 115.7 545.4 116.6 545.3 116.5 545.1 117Z" path-identifier="MKD" id="path4439"></path>
    <path d="M625.2 299.7L617.1 304 615.8 313.4 612.4 322.7 616.8 334.5 620.7 333 631.4 306.4 632.1 301.6 634 302.1 631.1 290.6 625.2 299.7Z" path-identifier="MDG" id="path4441"></path>
    <path d="M585.2 282.2L585.3 282.4 585 297.1 585.4 296.8 585.6 297 586.3 298.3 589.3 301.2 588.7 303.7 593 299.1 590.9 296 590.8 289.2 590.8 289.2 590.8 289.1 588.4 282.4 585.2 282.2 585.2 282.2Z" path-identifier="MWI" id="path4443"></path>
    <path d="M824.8 228.8L825.3 228.1 825.1 228.1 824.8 228.8ZM775.6 231.6L776.1 231.3 775.8 230.9 775.6 231.6ZM776.8 231.5L780.4 242.6 789 246.9 786.5 242.4 786.5 237.9 782.9 231.8 782.3 231.7 779.6 233.6 779.5 231.6 776.6 231.1 776.8 231.5ZM819.3 236.2L819.3 236 819.2 236 818.8 237.5 818.2 238.8 816.7 237 816.4 237 813.8 241.5 809.4 243.1 804.3 245.6 804.3 245.1 807.1 249.1 814 246.8 817.1 247.1 820.9 242 821 239.2 826.7 238.3 826.9 238 829.7 237.5 827.6 232.2 824.7 229.7 819.8 235.8 819.6 236 820 237.2 819.6 237.6 819.3 236.3 819.3 236.2Z" path-identifier="MYS" id="path4445"></path>
    <path d="M701.1 238.3L701.1 238.3 701.1 238.3 701.1 238.3ZM699.5 233.2L699.4 233.2 699.4 233.2 699.5 233.2ZM700.7 236.9L700.7 236.9 700.7 236.9 700.7 236.9ZM699.1 240.5L699.2 240.5 699.1 240.5 699.1 240.5ZM700.7 232.8L700.7 232.7 700.7 232.7 700.7 232.8ZM700.6 232.6L700.6 232.5 700.6 232.5 700.6 232.6ZM699.3 232.6L699.3 232.5 699.3 232.5 699.3 232.6ZM699.9 234.7L699.9 234.7 699.9 234.7 699.9 234.7ZM700.2 232L700.2 231.9 700.2 231.9 700.2 232ZM700.2 231.9L700.2 231.8 700.2 231.8 700.2 231.9ZM700.1 231.7L700.1 231.7 700.1 231.7 700.1 231.7ZM700 231.4L700 231.4 700 231.4 700 231.4ZM700 231.3L700 231.3 700 231.3 700 231.3ZM698.5 231.1L698.5 231.1 698.5 231.1 698.5 231.1ZM699.6 231.1L699.6 231 699.5 231 699.6 231.1ZM701 238.4L701 238.3 701 238.3 701 238.4ZM699.5 230.5L699.5 230.4 699.5 230.4 699.5 230.5ZM699.6 230.3L699.6 230.3 699.6 230.3 699.6 230.3ZM701.1 238.6L701.1 238.6 701.1 238.6 701.1 238.6ZM699.7 230.2L699.7 230.2 699.7 230.1 699.7 230.2ZM699.5 243.1L699.5 243.2 699.5 243.2 699.5 243.1ZM699.8 230.1L699.8 229.9 699.8 229.9 699.8 230.1ZM699.9 229.8L699.9 229.8 699.9 229.8 699.9 229.8ZM698.8 238.9L698.8 238.9 698.8 238.9 698.8 238.9ZM699.4 233.1L699.4 233 699.4 233.1 699.4 233.1ZM700.7 233L700.8 232.9 700.8 232.9 700.7 233ZM701 239.1L701 239.1 701 239.1 701 239.1ZM700.8 244.1L700.8 244 700.8 244 700.8 244.1ZM700.8 244.3L700.8 244.2 700.8 244.2 700.8 244.3ZM699.2 240.5L699.2 240.5 699.2 240.5 699.2 240.5ZM699.2 232.5L699.2 232.5 699.2 232.5 699.2 232.5ZM699.6 244.3L699.6 244.3 699.6 244.3 699.6 244.3ZM699.6 244.4L699.7 244.4 699.6 244.4 699.6 244.4ZM699.4 243.2L699.4 243.1 699.4 243.1 699.4 243.2ZM699.4 232.9L699.4 232.9 699.4 232.9 699.4 232.9ZM701.4 240.9L701.4 240.9 701.4 240.9 701.4 240.9ZM700.4 254L700.3 254 700.3 254 700.4 254ZM700.9 241.4L701 241.2 700.8 241.2 700.9 241.4ZM700.4 254L700.4 254 700.4 254 700.4 254ZM700.8 242.9L700.8 242.8 700.8 242.9 700.8 242.9ZM700.9 245.3L700.9 245.2 700.9 245.2 700.9 245.3ZM701.4 245.1L701.4 245.1 701.4 245.1 701.4 245.1ZM701.4 245.1L701.5 245 701.5 245 701.4 245.1ZM701.4 245.3L701.4 245.3 701.4 245.3 701.4 245.3ZM701.3 242.4L701.4 242.4 701.3 242.4 701.3 242.4ZM700.7 245.4L700.7 245.4 700.7 245.4 700.7 245.4ZM699.8 250.5L699.7 250.5 699.7 250.5 699.8 250.5ZM701.3 250.6L701.3 250.5 701.3 250.6 701.3 250.6ZM701.4 245.7L701.4 245.6 701.4 245.7 701.4 245.7ZM698.8 239.8L698.8 239.8 698.8 239.8 698.8 239.8ZM699.8 250.9L699.8 250.8 699.8 250.8 699.8 250.9ZM700.7 245.9L700.7 245.9 700.6 245.9 700.7 245.9ZM700 251L700 250.9 700 250.9 700 251ZM700.6 253.8L700.5 253.7 700.5 253.7 700.6 253.8ZM699.7 241.8L699.7 241.8 699.7 241.8 699.7 241.8ZM700.8 242.5L700.8 242.4 700.8 242.5 700.8 242.5ZM701.1 252.8L701.1 252.7 701.1 252.7 701.1 252.8ZM701.4 242.3L701.4 242.2 701.4 242.2 701.4 242.3ZM699.7 250.2L699.7 250.2 699.7 250.2 699.7 250.2ZM700.2 249.1L700.3 249.1 700.2 249.1 700.2 249.1ZM700.3 249.2L700.3 249.2 700.3 249.2 700.3 249.2ZM700.9 249.1L700.9 249.1 700.9 249.1 700.9 249.1ZM700.5 251.1L700.5 251 700.5 251.1 700.5 251.1ZM701.6 237.5L701.6 237.4 701.6 237.4 701.6 237.5ZM699.9 235.1L699.9 235.1 699.8 235.1 699.9 235.1ZM701.2 234.8L701.2 234.8 701.2 234.7 701.2 234.8ZM699.7 235.3L699.7 235.2 699.7 235.3 699.7 235.3ZM699.5 236.1L699.5 236 699.5 236 699.5 236.1ZM700.7 237.4L700.7 237.4 700.7 237.4 700.7 237.4ZM701.3 237.8L701.3 237.8 701.3 237.8 701.3 237.8ZM700.5 234.2L700.5 234.2 700.5 234.2 700.5 234.2ZM701.3 234.4L701.3 234.3 701.3 234.3 701.3 234.4Z" path-identifier="MDV" id="path4447"></path>
    <path d="M457.1 204.1L457.4 204.5 457.5 207.6 459.3 209.6 459.5 211.6 459.5 211.8 459.3 211.9 464 213 466 211.7 469.1 218.7 469 219 469.3 219 469.8 218.2 475.6 218.1 476 218.1 476.2 217.4 480.5 208.2 482.4 207.6 491 203.1 492.3 203.7 492.3 203.4 500.2 202.2 503.5 198.9 503.6 191.6 503.6 190 501 190.5 497 186.5 494.9 183.7 483.1 174.6 478.3 171.1 473.4 171.1 475.9 198.5 470.2 201.8 457.1 204.1 457.1 204.1Z" path-identifier="MLI" id="path4449"></path>
    <path d="M529.9 135.5L530 135.4 529.6 135.4 529.9 135.5Z" path-identifier="MLT" id="path4451"></path>
    <path d="M444.1 184.5L446.2 187.2 446.1 188.1 445.1 199.8 445.1 199.9 449.2 198 456.6 203.7 457.1 204.1 457.1 204.1 470.2 201.8 475.9 198.5 473.4 171.1 478.3 171.1 477.4 170.4 472.6 167 467.8 163.7 467.7 167.9 458.5 167.9 458.3 176.1 455.2 179.1 455.3 182.9 444.3 182.9 444 184.8 444.1 184.5Z" path-identifier="MRT" id="path4453"></path>
    <path d="M180.9 158.1L181.1 157.2 180.7 156.9 180.9 158.1ZM174.4 161.3L174.7 160.9 174.1 161 174.4 161.3ZM173.7 147.1L174.6 155.1 177.8 159.2 174.7 161.8 181.1 168.7 181.5 172.4 184.9 177.6 183.5 166.2 178 154.3 181.3 149.7 186.7 162.6 189.5 167 188.5 168.5 194.2 174.7 197.6 182.9 197.2 189.3 201.1 192.7 216 200.3 220.4 201.1 224.3 198.8 230.6 204.3 231.1 204.8 231.4 202.5 236.7 199.9 235.8 195 240.8 194.3 241.1 194.3 241.1 193.8 241.4 193.7 241.9 194.1 243.7 192.1 244.2 191.5 245.8 182.1 239.8 183.5 237.3 189.3 226.1 193.2 223.2 191.5 220 185.3 218.7 178.8 222.4 169 222.7 168 219.1 167.1 213.8 155.7 205 153.3 202.3 150.2 189 150.7 180 146.9 173.8 146.8 173.7 147.1Z" path-identifier="MEX" id="path4455"></path>
    <path d="M558.6 96.5L563.3 102.2 563.4 105.1 563.6 105.4 563.6 105.2 560.7 95.8 558.4 96.4 558.4 96.5 558.6 96.5Z" path-identifier="MDA" id="path4457"></path>
    <path d="M510.7 110.7L510.8 110.7 510.8 110.7 510.8 110.6 510.8 110.6 510.8 110.6 510.7 110.7 510.7 110.7Z" path-identifier="MCO" id="path4459"></path>
    <path d="M710.3 93.6L710.7 94.1 718.8 98.3 722.9 103.6 726.9 106.5 736.6 109.3 741.3 113.8 763.7 116.5 775.3 114.8 779.6 110.9 777.4 106.8 786.6 105.3 787.3 102.7 793.8 101.7 789.1 97.3 781.2 95.7 780.9 91.7 780.9 91.5 780.4 91.2 775 90.2 767.8 93.6 757.1 91 732.7 84.3 734.5 90.1 733 91.9 725.8 90.9 718.9 88.3 710.7 93.6 710.3 93.6Z" path-identifier="MNG" id="path4461"></path>
    <path d="M540.8 111.3L540.5 111.9 539.5 113.1 539.8 114.2 539.5 114.4 539.6 114.6 539.7 114.7 539.7 114.7 539.9 114.9 540.5 115.2 541.5 116.1 542.1 116.6 542.1 115.8 543.7 114.4 543.7 114.4 543.6 113.9 544 113.5 544.2 113.2 540.8 111.4 540.8 111.3Z" path-identifier="MNE" id="path4463"></path>
    <path d="M485.2 138.3L468.6 144.4 465 150.6 465.3 154.4 455.8 162.1 455.3 162.5 464.3 162.5 467.8 162.5 467.8 159.1 476.4 155.3 487.2 144.5 485.7 138.5 485.2 138.3Z" path-identifier="MAR" id="path4465"></path>
    <path d="M585.6 297L582.3 298.3 578.8 299.5 577.3 302 577.5 302.3 577.4 303.5 584.4 306.2 579.3 324 579 324.2 579.6 326.7 580.5 332.6 580.1 335.2 580.2 335.6 580.5 335.8 580.5 336.3 580.5 337.4 580.5 338.5 581 338.5 582.6 338.5 582.8 336.6 584.8 333.1 588.9 331.4 590.7 325.9 589 317.1 603.4 305.3 606.4 297.9 606.7 285.7 606.4 285.6 600.8 288.7 596.9 289.5 592.1 289.2 590.8 289.2 590.8 289.2 590.9 296 593 299.1 588.7 303.7 589.3 301.2 586.3 298.3 585.6 297Z" path-identifier="MOZ" id="path4467"></path>
    <path d="M771 214.6L770.5 213.8 770.6 214.3 771 214.6ZM754.7 191.5L754.8 190.9 754 190.9 754.7 191.5ZM770.2 212L770.5 211.5 770.3 211 770.2 212ZM754.8 189.6L755.1 189.1 754.3 188.7 754.8 189.6ZM757.9 200.7L758.4 200 757.8 200.2 757.9 200.7ZM771.9 218.4L769.9 202 770.2 198.6 766.3 194.2 765.9 189.2 771.5 185.8 771.9 186.1 771.9 186.1 773.5 183 774.3 182.2 774.3 182.2 774.1 181.5 763.3 174.8 762.5 171.9 764.4 164.4 759.7 160.5 759.6 160.7 759.6 161.1 759.9 164.3 754.5 171 750.4 180.7 750.2 180.8 750.5 182.7 750.1 182.8 749.8 182.5 749.7 183.8 750.1 185 755.5 189.2 757.8 196 765 196.3 767.5 201.8 771.5 219.6 771.9 218.4Z" path-identifier="MMR" id="path4469"></path>
    <path d="M537 344.1L539.5 344.5 545.5 343.9 547 336.1 547.2 331.8 547.4 327.4 547.5 322.8 550.3 322.8 550.7 310.9 557.8 310.9 561.5 309.4 562.7 309.3 562.3 308.9 562.1 308.6 561.3 308.3 559.9 308.3 557.7 308.7 555.9 309.1 539.6 308 531 308.1 524.8 307.5 524.7 309.2 532.1 324.6 533.9 340 536.9 344.2 537 344.1Z" path-identifier="NAM" id="path4471"></path>
    <path d="M734.5 161.8L733.7 161.7 725.9 160.4 722.2 157.3 713.7 154.9 713.4 154.3 713.1 154.4 711.6 158.7 717.3 161.9 734.8 166.4 734.7 161.9 734.5 161.8Z" path-identifier="NPL" id="path4473"></path>
    <path d="M502 86.7L501.1 86.8 500.5 86.7 500.1 86.7 499.9 86.7 501 87.1 501 87.2 502 86.8 502 86.7ZM506.5 88.6L506.4 88.5 507.3 85.3 508.8 84 509.1 80.9 508.8 80.9 503.1 81.8 502 86.6 502.1 86.7 506.1 87.4 505.7 88.6 506.5 88.6Z" path-identifier="NLD" id="path4475"></path>
    <path d="M961.3 321.6L960.6 320.8 960.6 321.5 961.3 321.6ZM959.5 320.2L959.5 319.3 959 319.3 959.5 320.2ZM957.2 324.1L952.1 317.3 951 316.7 957.2 324.1Z" path-identifier="NCL" id="path4477"></path>
    <path d="M955.7 375L949.8 379.3 950.2 383.5 952.3 384.3 964 376.1 965 373.2 961.7 374.6 957.8 370.9 957.9 365.9 955.7 375ZM913.9 404L916 403.5 916.2 402.2 913.9 404ZM928.2 392.9L919 396.8 915.5 399.4 919 402.1 927.5 398.1 945.5 386.3 943.9 383.3 933.1 390.8 928.2 392.9Z" path-identifier="NZL" id="path4479"></path>
    <path d="M244.4 210.1L243.8 209.6 244 210.6 248.4 215.9 248.6 216 251.5 216 252.8 217 254.4 216.5 254.2 216.5 254.7 212.2 255.2 209 256.6 203.8 257 203.4 246.3 207.4 244.6 209.9 244.4 210.1Z" path-identifier="NIC" id="path4481"></path>
    <path d="M524.7 176.1L512.5 184.5 508 189 503.6 190 503.6 191.6 503.5 198.9 500.2 202.2 492.3 203.4 492.3 203.7 492.3 203.7 496.1 211 498.1 211.7 497.5 211.9 498.5 213.4 498.5 213.4 498.4 212.3 499.7 211.8 501.8 213.9 501.9 214.1 502.1 213.9 502 211.4 507.4 207 517.1 210.3 522.3 208.6 527 209.7 529.4 207.5 530.2 207.5 530 206.6 532.2 201 535.3 197.2 535.8 187.5 534.1 180.8 533.5 177.6 531.4 178.8 529.5 177.1 529 176.9 525 175.9 524.7 176.1Z" path-identifier="NER" id="path4483"></path>
    <path d="M501.9 214.1L501.5 214.9 502.1 219 500.2 222.6 499.4 231.3 499.9 231.2 505.6 232.4 507.7 236.9 516 236.4 516.1 236.3 520.6 229.1 524.1 231 531.1 215.7 531.8 211.6 531.5 209.6 531 208.8 530.6 208.1 530.2 207.5 529.4 207.5 527 209.7 522.3 208.6 517.1 210.3 507.4 207 502 211.4 502.1 213.9 501.9 214.1Z" path-identifier="NGA" id="path4485"></path>
    <path d="M523.8 35.2L525.1 34.1 525 34 523.8 35.2ZM532.4 32L531.9 31.4 531.7 31.5 532.4 32ZM538.6 31.5L537.9 31.1 537.4 31.3 538.6 31.5ZM510 49.9L510.9 49.4 509.8 49.8 510 49.9ZM520 37.5L521.1 36.9 520.2 36.9 520 37.5ZM530.9 32.7L531.7 32.1 530.1 32.4 530.9 32.7ZM533.9 32.1L534.1 31.6 533.7 31.6 533.9 32.1ZM536.9 30.9L538.1 30.5 537.3 30.5 536.9 30.9ZM540 30.8L540.5 30.4 539.8 30.2 540 30.8ZM509.5 50.8L509.3 50.4 508.8 50.6 509.5 50.8ZM504.3 59.3L504.6 58.6 503.8 59 504.3 59.3ZM523.1 36.1L523.1 34.9 521.7 35.6 523.1 36.1ZM551.7 34.8L551.8 34.8 552.2 34 554.5 33.4 555.1 32.8 554.9 32.8 555.1 31.4 549.6 30.3 549.3 32 551.3 34.6 551.7 34.8ZM549.3 31.9L543.1 29.6 529.4 33.6 520.4 40.6 519.1 45.3 513 49.9 503.3 54.1 505.5 65.3 508.8 66.5 517.8 63.2 517.9 63.5 520.1 60.3 518 51 524.4 41.9 533.3 34.8 534.3 34.7 534.6 34.6 541 35.7 545.1 33 549.3 31.9Z" path-identifier="NOR" id="path4487"></path>
    <path d="M655.9 186.7L656.7 185.6 656.5 185 655.9 186.7ZM647.9 179.9L648.2 183.3 637.6 190.5 637.4 191.9 640 196.7 641.2 198.1 641.4 198 647 196.4 653.9 190.5 657 182.9 656.1 177.2 648.9 172.7 648.1 171.2 647.1 171 647.4 173.7 646.6 175 647.1 179.9 647.9 179.9Z" path-identifier="OMN" id="path4489"></path>
    <path d="M690.5 132.4L682.3 135.1 683.8 137.7 680.3 142 680.3 148.7 672.9 151.9 673.4 155.1 658.8 155.5 658.4 155.4 660 156.9 664.5 160.5 662.6 170.5 663 170.5 664 170.8 676.3 169.9 681.4 175.1 681.4 175.1 688 173.5 689 172 683.8 165.4 684.9 162 689.7 161.5 694.5 149.4 696.4 148 692.2 144.8 696.2 140.1 700.4 137.5 700.5 137.2 700.2 137.3 695 134.9 693.8 133.1 690.7 132 690.4 132.2 690.5 132.4Z" path-identifier="PAK" id="path4491"></path>
    <path d="M256.1 225.9L262.8 228.4 262.9 225.3 266.9 222.8 269.8 228.1 270.1 228.5 272.1 225.7 271.8 223.8 271.6 223.8 265.8 220.7 260.3 223.4 257.7 221.4 257.2 220.9 255.7 224.9 256 225.9 256.1 225.9Z" path-identifier="PAN" id="path4493"></path>
    <path d="M918.6 282.6L918.7 281.8 918 282 918.6 282.6ZM920.9 284.7L921 283.9 920.2 284.2 920.9 284.7ZM920.3 260.5L920.6 259.8 919.9 259.5 920.3 260.5ZM927.2 289.3L927.3 289 926.1 288.4 927.2 289.3ZM910.6 269.4L910.7 268.6 910.3 268.8 910.6 269.4ZM925.8 281.6L925.8 280.8 925.2 280.9 925.8 281.6ZM892.5 281.6L899.1 280.7 896.4 278.7 902.4 276.1 907 277.9 917.8 286.4 919.3 285.9 910.3 276 910.4 271.1 904.3 265 894 260.2 893.6 260.2 892.6 273.9 892.8 274.1 892.3 281.3 892.5 281.6Z" path-identifier="PNG" id="path4495"></path>
    <path d="M316.9 323.6L316.9 323.6 327.4 331.2 330.7 337.1 330 339.9 334.3 340.6 340.4 334.6 340.4 334.4 340.3 333.9 340.6 329.7 338.2 329.4 335.7 323.8 328.9 317 328.8 316.9 328.7 315.8 323.4 314.1 318.6 315.2 317.6 319.8 316.9 323.6Z" path-identifier="PRY" id="path4497"></path>
    <path d="M294.4 287.2L293.3 287 291.3 283.4 283.8 282.2 281.2 276.1 292.3 265.7 292.4 265.4 291.5 264.3 291.4 260 283.3 258 277.1 252.2 277 252.2 276.8 252.3 276.1 256.8 269.6 261.6 262.7 262.7 262.6 263 260.6 271.5 264.1 273.6 277.2 299.1 290.8 308 292.8 310.2 293.9 311 295.4 310.3 295.6 309.8 295.7 308.8 296.2 308.3 296.1 307.9 295.8 302.2 297.2 292.2 295.7 289.4 294.4 287.2Z" path-identifier="PER" id="path4499"></path>
    <path d="M833 235.5L833.6 235.2 834 234.5 833 235.5ZM841.3 222.6L841.4 219.7 839.3 219.6 841.3 222.6ZM848.3 220.1L848.2 218 847.9 219.3 848.3 220.1ZM839.4 218.2L839.8 217.8 839.3 217.6 839.4 218.2ZM839.3 226L844.1 227 844.3 229.8 849.5 232.1 851.8 228.4 850.8 224.2 847.8 220.1 847.4 223.1 839.3 226ZM848.3 216.2L845.9 211.2 844.3 212.6 848.3 216.2ZM830.1 216.2L825.1 223.7 824.7 224.8 830.1 216.2ZM836.9 232.9L836.5 232.2 835.9 232.4 836.9 232.9ZM832.6 213.1L831.3 212 831.3 212.4 832.6 213.1ZM837 209.2L836.4 208.1 836.4 208.7 837 209.2ZM839.1 212.2L839 211.5 838.4 211.7 839.1 212.2ZM836.2 204.6L836.1 203.2 835.6 203.4 836.2 204.6ZM844.5 214.8L845 214.6 844.7 214.1 844.5 214.8ZM837.8 218.2L840.8 214.4 838.9 214.5 837.8 218.2ZM829.9 199.5L834.5 207.8 838.2 207.8 843.1 211.3 843.2 209.8 835.2 204.6 835 193.3 830.4 191.9 829.9 199.5Z" path-identifier="PHL" id="path4501"></path>
    <path d="M538.6 77.2L538.6 77.2 536.1 77.3 534.3 76.1 526.3 78.9 525.9 78.8 525.8 78.9 525.8 79 526.3 79.1 526.7 79.1 526.8 79.3 526.6 79.6 526 79.6 526.4 81.6 527.4 85.2 528.4 87.6 528.2 88.3 528.6 88.3 533.8 90.3 533.6 89.7 538.3 92 538.5 92.5 538.5 92.5 541.5 93.5 543.7 93.2 547.7 93.9 547.9 93.9 548 93.9 547.9 92.5 549.7 86.5 549.4 86.2 549.3 86 549.4 84.6 549.7 82 548.2 79 548.1 78.8 548 78.6 544.5 77.6 539.5 77.3 539.1 77.3 538.7 77.2 538.6 77.2Z" path-identifier="POL" id="path4503"></path>
    <path d="M424.2 129.9L424.4 129.4 423.7 129.5 424.2 129.9ZM417.4 127.7L416.6 127.2 416.1 127.5 417.4 127.7ZM445.7 146.5L445.1 145.7 444.9 145.9 445.7 146.5ZM468.6 116.7L469.1 119.3 468.7 131.8 471.8 131.7 471.9 131.7 474.2 118.6 475.5 117.4 468.7 116.4 468.6 116.7Z" path-identifier="PRT" id="path4505"></path>
    <path d="M303.5 193.9L307.3 192.4 303.1 192 303.5 193.9Z" path-identifier="PRI" id="path4507"></path>
    <path d="M634.1 172.2L634.5 168.2 632.8 171.5 632.8 171.9 633.2 172.5 633.6 172.5 633.9 172.3 634.1 172.2Z" path-identifier="QAT" id="path4509"></path>
    <path d="M549.1 97.5L548.8 97.7 548.5 98 543.3 103.1 543.1 103.3 543.5 103.7 544.6 105.2 546.5 106.2 549.5 108.8 549.9 109.1 550.5 109.5 557 111.1 561.7 109.5 565.3 110.7 565.3 110.1 565.3 108.1 565.9 107.8 567.3 106.1 567.4 106.1 566.4 105.4 563.8 105.4 563.6 105.4 563.4 105.1 563.3 102.2 558.6 96.5 558.4 96.5 557.6 96.7 554.3 98.2 549.2 97.4 549.1 97.5Z" path-identifier="ROU" id="path4511"></path>
    <path d="M593.5 3.6L593.3 3.3 592.4 3.4 593.5 3.6ZM129.6 28.1L127.2 29.5 132.1 29.3 129.6 28.1ZM769 28.4L767.3 28.1 768.3 28.4 769 28.4ZM876.3 91L875.6 88.8 875 90.1 876.3 91ZM748.9 26.7L748.3 25.6 744.2 25.3 748.9 26.7ZM747.1 25.5L747.4 25.2 746.8 25.1 747.1 25.5ZM744.2 25.2L746.6 25 744.9 24.9 744.2 25.2ZM876.6 93.3L875.9 92.4 876 93 876.6 93.3ZM747.3 24.8L747.1 24.7 745.6 24.5 747.3 24.8ZM649 25L648.9 24.6 648.3 24.2 649 25ZM590.5 5.9L590.2 5.6 588.8 5.7 590.5 5.9ZM639.4 24.6L638.3 23.9 637.9 24 639.4 24.6ZM728.9 24.2L728.3 23.9 727.5 23.9 728.9 24.2ZM117.8 35.3L108.6 42.5 116.1 47.7 125.3 43.6 125.7 40.5 117.8 35.3ZM875.4 101.2L875.8 100 875.6 99.9 875.4 101.2ZM648.7 18.7L648.1 18.1 647.3 18.2 648.7 18.7ZM872.3 104.9L873.2 102.9 872.5 103.7 872.3 104.9ZM743.4 25.8L743.9 23.4 740.4 22.9 743.4 25.8ZM594.7 27.4L608.8 30.2 602.3 26.7 603 24.2 599.5 23.2 594.7 27.4ZM639.7 23.2L640.6 23.1 639.8 22.9 639.7 23.2ZM649.3 16.9L649.3 16.8 648 16.7 649.3 16.9ZM654.2 21.5L654.3 21.4 652.8 21.5 654.2 21.5ZM688.3 11.7L688.3 11.4 687.9 11.3 688.3 11.7ZM590.8 7.1L592.7 7 590.7 6.5 590.8 7.1ZM656.9 20.5L657.2 20.3 656.6 20.2 656.9 20.5ZM757.3 22L755.9 21.4 754.9 21.3 757.3 22ZM659 19.6L658.8 19.2 658.1 19.3 659 19.6ZM760 20L765.7 19.6 768.7 17.9 754.1 16.3 760 20ZM817.6 75.9L817.9 75.2 817.3 75.7 817.6 75.9ZM592.5 5.4L589.3 4.9 590.8 5.1 592.5 5.4ZM576 7.1L579.2 5.2 577.4 5.6 576 7.1ZM834.6 81.2L850.3 100.4 854.4 101.1 850.1 98.3 846.7 89.9 839.1 82.2 834.6 81.2ZM597 7.4L597.9 7.2 596 7.1 597 7.4ZM657.7 13.8L657.9 13.5 657.4 13.4 657.7 13.8ZM656.6 8L653.1 7.3 654.3 7.6 656.6 8ZM703.1 15.5L702.5 15.1 702 15 703.1 15.5ZM765.6 21.9L766.3 21.8 765.9 21.3 765.6 21.9ZM539.4 77.1L540.4 76.5 539.6 76.6 539.4 76.7 538.7 77.2 539.1 77.3 539.4 77.1ZM690.6 13.6L691.2 13.4 690.5 13.3 690.6 13.6ZM668.4 9.9L669.9 8.3 664.3 6.9 659.2 7.3 668.4 9.9ZM674.2 11.9L678.9 9.3 673.3 10 674.2 11.9ZM711.1 21.4L710.7 20.4 708.4 20.3 711.1 21.4ZM656.8 19.9L656.6 19.7 656.2 19.6 656.8 19.9ZM750.9 18.2L750 17.5 748.8 17 750.9 18.2ZM657.6 20.6L658.3 20.3 657.7 20.2 657.6 20.6ZM628.7 8.4L630.3 8.3 628.1 8 628.7 8.4ZM601.6 19.9L603.1 21.5 607.1 19.2 620.8 14.9 619.3 14.4 601.9 17.5 601.6 19.9ZM593.2 35.6L593.2 33.5 591.6 34 593.2 35.6ZM599.2 6.3L600 5.3 595.8 6.1 599.2 6.3ZM591.5 5.7L588.3 5.1 586.5 5 591.5 5.7ZM602.4 5.8L604.7 5.6 605.1 4.8 602.4 5.8ZM598 5.3L599 4.9 596.4 5.1 598 5.3ZM572.7 6.3L575.6 5.7 577.1 5.8 572.7 6.3ZM589.9 4.7L589.1 4.5 587.8 4.4 589.9 4.7ZM820.7 76.7L818.8 75 819.1 76.3 820.7 76.7ZM601.3 3.9L600.6 3.6 598.8 3.7 601.3 3.9ZM569.2 46.1L569.1 45.5 568.7 45.6 569.2 46.1ZM657.7 7.2L656.6 4.8 654 5.1 657.7 7.2ZM551.7 34.8L550.7 35.1 554.8 39 556.4 46.6 561.6 52 554.7 58.9 554.7 59 556 58.6 555.9 61.9 555.8 62.1 554.8 64.1 555.3 65.9 555.4 67.7 555.4 67.9 555.9 67.9 557.8 70.9 558.2 72 558.1 72.1 558.5 72.4 561.8 73.3 569.8 79.9 567.6 81 569.1 84.3 569.1 84.4 569.4 84.5 573.6 83.7 580.9 89.7 591 92.2 591.6 97.4 588.2 100.2 588.7 100 588 103.6 585.4 106.4 594 111.2 594.9 111.8 599.7 112.4 610.4 114.6 612.4 116.3 612.5 116.5 612.9 116.5 615 118.2 615.9 118.6 618.1 116.6 618 116.5 613 109.2 616.5 102.6 616.4 102.5 608 96 616.8 85.8 622.3 86.3 625.7 89 631.4 87.7 642.9 88.3 639.3 78.6 640.7 78.8 655.3 74.2 665.6 78.8 671.4 79.6 675.2 78.1 682 82.6 688.6 88.3 694.2 88.6 708.9 93.5 709.2 93.8 709.5 93.9 710.3 93.6 710.7 93.6 718.9 88.3 725.8 90.9 733 91.9 734.5 90.1 732.7 84.3 757.1 91 767.8 93.6 775 90.2 780.4 91.2 780.9 91.5 782.5 92.1 786.8 90.7 784.8 80.7 788.7 80 795.4 81.6 800 84.4 807.6 91.5 817.8 95.4 820.2 97.6 824.8 98.2 829.1 96.6 831.3 102.8 827 107 830.2 114.4 830.5 114.8 830.7 114.9 830.9 115.1 831 115.2 831.1 115.1 831.9 112 835.7 113.8 840.1 111.3 842.3 95.9 833.2 80.8 826.6 77.7 814.5 76.5 818.2 63.4 825.8 62.3 832 62.7 832.7 61.3 840.1 64 844.2 62 844.2 55.2 850.7 55.3 855.3 58.4 857.5 55.5 860.4 56.6 857.7 68.1 861.1 74.6 877 88.2 877.2 80.9 875.4 78.2 876.7 71.9 868.3 66.9 864.2 60.4 878.6 59 884.2 52.5 890 53.6 882.5 48.8 881.4 45.8 868.7 37.3 853.1 32.5 840.8 32 839.9 34.3 829.3 33 821.6 33.1 814.6 29.9 801.4 30.1 791.8 27.5 783.6 27.8 771.3 24.7 770.5 28.9 759.4 28 757.7 30.2 744.4 25.8 725 23.8 708.6 22.5 700.5 23.5 708.9 18.4 699.7 14.9 691.8 14.8 684.3 12.5 677.2 15.5 680.6 17.8 669.5 16.9 661.8 17.9 658.6 21 661.7 22.3 651.2 22.6 639.6 28.6 643 30.8 644.8 34.7 654 37.9 649 35.1 646.9 35.5 646 41.8 643 40.6 645.5 38.1 636.4 28.4 636 25 628.4 25 627.1 30.2 629.4 33 634.8 35.2 616.5 32.6 617.7 35.6 614.3 35.1 586.6 39.5 586 36.1 584.1 39.3 578.5 43.8 579.7 47.4 571.1 46.3 570.9 48.6 563.2 41 578 42.1 579.4 40.4 573.5 37.1 565.5 34.3 555.2 32.8 555.1 32.8 554.5 33.4 552.2 34 551.8 34.8 551.7 34.8Z" path-identifier="RUS" id="path4513"></path>
    <path d="M578.2 255.2L577.7 256.1 577.2 256.5 576.7 256.1 576.1 256.3 575.4 256.7 574.7 258 574.8 258.5 574 260.4 574.4 260.7 574.5 260.2 576.9 260.5 577.1 259.3 578.3 259.2 578.8 259.6 579.4 259.5 579.5 258 579.6 257.2 578.7 255.8 578.6 255.2 578.2 255.2Z" path-identifier="RWA" id="path4515"></path>
    <path d="M523.6 110.2L523.8 109.9 523.6 110 523.6 110.2Z" path-identifier="SMR" id="path4517"></path>
    <path d="M512.8 246.9L513 246.4 512.7 246.4 512.8 246.9Z" path-identifier="STP" id="path4519"></path>
    <path d="M647.6 168.7L647.5 167.3 646.9 167.5 646.9 167.6 647.2 167.8 647.2 168.9 647.6 169 647.6 168.7ZM598.4 147.8L593.5 151.1 590.7 157.6 587.6 157 587.6 157 588.1 161 595.9 173.4 600.6 178.9 600.9 183 606.5 188.8 612 198.3 612.3 198.9 616.9 195.6 620.4 203 625.2 195.1 637.6 190.5 648.2 183.3 647.9 179.9 647.1 179.9 646.6 180.6 636.9 179.1 632.8 171.9 632.7 172 629.7 165.1 625.2 160.1 624.8 159.6 622.8 159.6 622 158.2 619.9 157.9 619.5 157.8 617.4 158.6 616.7 158.9 614.5 157.6 614.4 157.5 612.3 156.7 609.1 152.6 600.4 148.3 598.5 147.8 598.4 147.8Z" path-identifier="SAU" id="path4521"></path>
    <path d="M445.1 200L443.2 204.5 444.8 207.8 444.8 207.9 450.6 207.8 444.2 209.7 444.2 210.1 445.2 211.2 444.3 212 444.4 212 445.8 211.6 447.3 211.7 452.2 210.9 452.8 210.9 454.7 211 454.8 211.5 456.7 212.1 459.1 211.7 459.5 211.8 459.5 211.6 459.3 209.6 457.5 207.6 457.4 204.5 457.1 204.1 456.6 203.7 449.2 198 445.1 199.9 445.1 200Z" path-identifier="SEN" id="path4523"></path>
    <path d="M650.6 265.9L650.3 265.7 650.4 265.7 650.6 265.9ZM649.8 267.3L649.7 266.7 649.5 266.7 649.8 267.3Z" path-identifier="SYC" id="path4525"></path>
    <path d="M454 222.9L456.2 226.7 456.3 228 458.2 228.9 459 229.5 460.1 228 460.7 227.6 462.4 224.8 462.5 224.4 462.2 224.4 461.4 221.8 457.9 219.5 453.9 222.6 454 222.9Z" path-identifier="SLE" id="path4527"></path>
    <path d="M533.9 95.8L534.1 96.4 534.2 96.8 534.5 97.1 534.8 97.3 534.9 97.2 537.8 98.1 543.7 95.5 547 96.1 547.1 96 547.1 95.5 547.4 95.1 547.7 94.2 547.9 94 547.9 93.9 547.7 93.9 543.7 93.2 541.5 93.5 538.5 92.5 538.5 92.5 538.5 92.5 537 93.3 534 95.3 534 95.4 533.9 95.8Z" path-identifier="SVK" id="path4529"></path>
    <path d="M526.4 102L526.4 102.2 526.3 103.2 526.8 104.5 526.6 104.9 526.7 105 526.3 105.2 528.8 104.6 530.3 105.4 533.7 102.1 533.7 102.1 533.2 101.6 533.2 101.4 532.8 100.9 532.4 100.9 532.1 101 529.3 101.7 529.2 102 527.4 102.1 526.4 102Z" path-identifier="SVN" id="path4531"></path>
    <path d="M949.9 282.9L948.2 279.6 948.7 281.4 949.9 282.9ZM934.7 274L935.3 272.8 932.2 270.1 934.7 274ZM937.2 277.5L936.9 276.3 936.7 276.5 937.2 277.5ZM952.2 286.8L950.9 285.5 949.9 284.8 952.2 286.8ZM940.7 280.1L940.7 279.3 940.3 279.6 940.7 280.1ZM932 269.4L932.2 268.3 932.1 268 932 269.4ZM947.7 283.9L947.1 282.2 945.3 283.2 947.7 283.9ZM940.4 279.5L939.8 277.8 938.6 278.5 940.4 279.5ZM950.4 283.4L950 282 950 283 950.4 283.4ZM946.5 290.1L946.4 289.5 945.3 288.8 946.5 290.1ZM939.5 275.8L937.4 273.3 937.3 274 939.5 275.8ZM945.9 279.4L944.8 277.6 942.6 276.9 945.9 279.4Z" path-identifier="SLB" id="path4533"></path>
    <path d="M644 212.1L642.6 211.3 643.4 212 644 212.1ZM612.7 217.5L616.7 222.7 628.1 226 619.7 236 611.1 238.9 611.1 238.9 611.1 238.9 608.5 242.7 608.6 251.8 610.2 257.2 610.9 255.9 623.1 243.7 627.9 237.9 636.1 221.3 635.5 213.1 626.9 216 617.3 218.1 614.3 214.8 614.3 214.8 613.5 216.3 612.7 217.5Z" path-identifier="SOM" id="path4535"></path>
    <path d="M572.8 323.6L566.7 328.5 560.4 335.2 555.7 333.5 551.6 338.5 547.7 332.2 547.2 331.8 547 336.1 545.5 343.9 539.5 344.5 537 344.1 537 344.3 541.3 354.2 540.7 359.2 542.5 362.8 551.8 361.7 560.8 361.7 564.7 360.2 573.4 352.9 582.3 339.4 582.6 338.5 581 338.5 580.5 338.5 580.1 338.4 578.6 340 576.9 337.2 579.9 335.7 580.2 335.6 580.1 335.2 580.5 332.6 579.6 326.7 579 324.2 578.6 323.9 574.8 323.3 573.9 323.4 573.6 323.5 572.8 323.6ZM572.5 346.6L568.4 350.8 565.7 347.5 570.5 344.1 572.5 346.6Z" path-identifier="ZAF" id="path4537"></path>
    <path d="M452.2 161.3L453.3 160.7 453.7 159.5 452.2 161.3ZM499.8 124.8L499.1 122.9 498.7 123.2 499.8 124.8ZM445.7 161.4L446.6 159.7 446.1 160.1 445.7 161.4ZM495.3 126.2L495.9 125.4 495.7 125.3 495.3 126.2ZM442.5 159.9L442.8 158.7 442.5 158.7 442.5 159.9ZM495.3 114L491.5 114 490.9 113.5 487 111.8 486.8 111.9 470.2 111.2 468.6 116.5 468.7 116.4 475.5 117.4 474.2 118.6 471.9 131.7 472 131.7 482.3 133.2 486.6 132.4 490.8 124.3 499.9 115 499.9 114.8 498.6 114.9 497.5 114.8 496.3 114.6 496.1 114.6 495.7 114.8 495.4 114.7 495.4 114.3 495.4 114.3 495.3 114Z" path-identifier="ESP" id="path4539"></path>
    <path d="M718.6 227.3L719.8 232.2 724.4 230.5 720.3 221 718.6 227.3Z" path-identifier="LKA" id="path4541"></path>
    <path d="M315.4 196.2L315 195.6 314.8 195.7 315.4 196.2Z" id="path4543"></path>
    <path d="M319.3 207.5L319.4 206.3 319 207 319.3 207.5Z" path-identifier="LCA" id="path4545"></path>
    <path d="M318.4 209.9L318.4 209.7 318.3 209.8 318.4 209.9ZM318.7 210L318.6 210 318.6 210 318.7 210ZM318.5 210.2L318.5 210.3 318.5 210.2 318.5 210.2ZM318.3 210L318.3 210 318.2 210 318.3 210ZM317.8 211.2L317.8 211.2 317.8 211.2 317.8 211.2ZM317.9 211L317.8 211 317.8 211.1 317.9 211ZM318.1 210.7L318 210.8 318 210.8 318.1 210.7ZM318.6 210L318.6 210.1 318.6 210 318.6 210ZM318.5 209.4L318.7 208.8 318.7 208.6 318.5 209.4Z" path-identifier="VCT" id="path4547"></path>
    <path d="m 586.19489,217.08468 v 0 L 588.5,220.3 589.20139,218.71359 589.8,216.7 h 1.1 l 4.1,-10.9 v 0 0 l -0.4,-2.9 1.3,-5.4 4.3,-3.8 -0.2,-0.4 -4.1,-7.6 -0.4,-1.6 -4.3,-6.3 -0.3,-0.7 -4,3.7 h -7.9 -15.8 -1.7 l 0.1,4.4 0.1,2 -1.8,0.1 -1,-0.1 0.1,1.7 v 1.7 l 0.4,10.5 h -2.5 l -2.1,7.5 2,7 -0.2,0.9 0.4,0.8 1,3.5 5.3,-3.1 1.43601,0.64681 0.96399,0.75319 2.81777,0.83972 2.88223,0.36028 2.03461,-0.9 1.56539,-0.6 1.75517,0.32334 1.9439,0.22069 1.70093,0.056 0.93926,-1.7569 0.57665,-1.24112 L 583,214.8 l 1.43601,0.70338 1.17944,0.50046 0.57944,1.08084 z" path-identifier="SDN" id="path4549" inkscape:connector-curvature="0" style="fill-rule:evenodd" sodipodi:nodetypes="cccccccccccccccccccccccccccccccccccccccccccccccccccc"></path>
    <path d="M330.7 245.5L332.1 245.8 332.8 244.1 335.8 244.3 336 244.3 336.1 244.2 336.5 244 337.2 241.5 337.4 234.5 337.8 233.7 333.2 232.5 332.6 233.3 328.9 233.9 328.7 234.1 327.4 241 328.4 240.9 330.4 245.3 330.7 245.5Z" path-identifier="SUR" id="path4551"></path>
    <path d="M540.1 10.3L540.3 10.1 539.8 9.9 540.1 10.3ZM533.7 13.6L536.2 12 533.5 11.2 533.7 13.6ZM534.1 9.1L539.9 7.5 532.8 6.6 523.8 6.8 534.1 9.1ZM522.4 15.2L526.2 10.7 519.6 7.5 513.4 7.6 513.3 10.3 522.4 15.2Z" path-identifier="NOR" id="path4553"></path>
    <path d="M579.9 335.7L576.9 337.2 578.6 340 580.1 338.4 580.5 338.5 580.5 337.4 580.5 336.3 580.5 335.8 580.2 335.6 579.9 335.7Z" path-identifier="SWZ" id="path4555"></path>
    <path d="M518.3 66.3L519 66 518.8 65.7 518.3 66.3ZM530.4 71.9L531.6 68.5 530.9 69.8 530.4 71.9ZM533.3 34.8L524.4 41.9 518 51 520.1 60.3 517.9 63.5 517.7 63.3 523.4 74.5 529.1 72.3 529.9 65.1 534.9 61.3 530.9 58.6 532.1 51.8 536.6 49.4 539.9 44.5 543.3 43.8 543.6 43.7 539 36.5 534.9 34.9 534.3 34.7 533.3 34.8Z" path-identifier="SWE" id="path4557"></path>
    <path d="M515.9 99.3L516 99.3 516 99 515.7 98.9 515.7 98.7 515 98.4 512.8 98.2 513 98.6 511 98.5 510.8 98.6 510.6 98.8 509.3 98.9 509.3 103.4 509.6 103.8 509.7 104 518.1 101.9 518.1 101.2 518.1 100.9 518.1 100.8 517.1 100.9 516.6 100.4 515.9 100.3 515.6 100.3 515.7 100.2 515.6 99.9 515.7 99.6 515.9 99.3Z" path-identifier="CHE" id="path4559"></path>
    <path d="M604.4 131.5L596.3 133.3 590.8 133.4 587.9 135.8 587.7 136 587.5 136.9 588.1 137.4 588.4 139.7 588.5 140 590.2 140.7 590.2 141 588.6 144.1 588.1 144.5 588.2 144.5 588.2 145.3 588.2 145.6 588.2 146.2 588.3 146.3 588.8 146.1 591.7 147.5 592.4 147 596.5 144.2 596.6 144.1 600.4 141.8 602.5 136.1 602.1 135.4 604.6 132 604.6 131.9 604.4 131.5Z" path-identifier="SYR" id="path4561"></path>
    <path d="M829.1 181.1L829.8 171.5 827.4 171.1 826.1 176.9 829.1 181.1Z" path-identifier="TWN" id="path4563"></path>
    <path d="M677.7 121.7L676.1 119.3 669.4 124.1 672.3 131.4 672.2 131.6 672.3 132 678.4 129.8 680 127.6 690.5 131 691.1 131.5 691.6 131.2 688.4 126.8 687.5 127.2 685.8 124.2 685.8 124.2 685.4 124.2 676.5 123.9 673.9 122.5 678.1 121.8 678 121.7 677.7 121.7Z" path-identifier="TJK" id="path4565"></path>
    <path d="M604.1 272.7L603.2 271 603.5 272 604.1 272.7ZM604.4 277.6L604.9 277.3 605.2 276.6 604.4 277.6ZM604.8 269.4L605.1 267.8 604.9 267.7 604.8 269.4ZM575.5 266.5L576 270.4 575.7 271 579 277.6 579.1 278.3 579.5 279.1 581.3 279.9 582.5 280.6 584.9 282 585.2 282.2 585.2 282.2 588.4 282.4 590.8 289.1 590.8 289.2 592.1 289.2 596.9 289.5 600.8 288.7 606.4 285.6 606.5 285.2 604 274.9 602.3 272.4 603.4 267.2 603.3 266.9 598.9 263.1 598.9 261.5 588.7 255 588.4 255 587 255 585.1 255 581.3 255 579.1 255.3 578.6 255.2 578.7 255.8 579.6 257.2 579.5 258 579.4 259.5 578.8 259.6 578.4 260.3 578.5 263.3 578.3 264 576.1 266.2 575.5 266.2 575.5 266.5Z" path-identifier="TZA" id="path4567"></path>
    <path d="M771.2 226.8L771.5 225.7 771.1 225.4 771.2 226.8ZM771.8 219.1L770.8 223.6 771 225.3 776.5 230.7 776.6 231.1 779.5 231.6 779.6 233.6 782.3 231.7 781.4 230.9 777.4 227.8 775.5 222.5 773.2 220.3 775 212.5 774.7 208.7 783.3 213.9 783.4 214.3 781.3 209 787.6 205.2 788.8 205.8 789 205.5 789.6 205.2 786.5 195.6 783.7 192.6 775.6 194.5 771.9 186.4 771.9 186.1 771.5 185.8 765.9 189.2 766.3 194.2 770.2 198.6 769.9 202 771.9 218.4 771.8 219.1Z" path-identifier="THA" id="path4569"></path>
    <path d="M848.3 281.6L847.3 279.7 847.1 280.2 846.6 280.7 847.1 281 847.3 281.5 847 282.4 848.3 281.6Z" path-identifier="TLS" id="path4571"></path>
    <path d="M491.3 215.9L493.3 229.8 495.1 232.1 496.3 231.8 496.3 223.1 496.2 222.4 493.9 217.8 494.3 216.3 493.6 216.3 493.1 216.5 493.1 216.3 491.2 215.8 491.3 215.9Z" path-identifier="TGO" id="path4573"></path>
    <path d="M1.5 312.6L1.4 312.5 1.4 312.5 1.5 312.6ZM2.1 320.5L2.1 320 1.5 320 2.1 320.5ZM3 312.2L3 312.2 3 312.1 3 312.2ZM3.3 315.3L3.1 315.1 3.1 315.1 3.3 315.3ZM1.1 315.7L1.2 315.7 1.1 315.5 1.1 315.7ZM3.3 315.6L3.3 315.6 3.2 315.6 3.3 315.6ZM2.9 321.1L2.9 320.7 2.7 320.7 2.9 321.1ZM3.2 312.2L3.4 312 3.4 311.8 3.2 312.2Z" path-identifier="TON" id="path4575"></path>
    <path d="M315.9 219.4L318.8 216.8 316.9 217.2 315.9 219.4Z" path-identifier="TTO" id="path4577"></path>
    <path d="M522 144.6L518.7 141.4 521.5 138.1 518.5 131.4 515.2 132.3 514.7 132.4 512.6 143.9 516.7 149.9 517.8 154.2 518.7 153.8 519.3 150.1 523.1 146.9 522.9 144.8 522 144.6Z" path-identifier="TUN" id="path4579"></path>
    <path d="M560.7 117.2L560.4 118.7 560.5 119.5 559.8 120.1 560 120.5 563.6 119.3 565.3 119 564.5 116.2 564.5 116.2 562.5 115.8 561.5 116.2 560.2 116.9 560.3 117.1 560.7 117.2ZM599.7 118.1L592.4 119.5 582.7 115.9 575.8 117 563.2 120.9 560.6 124.2 564.7 133.2 570.1 134.7 573.5 132.6 579.5 135.5 587.7 132.5 588 135.5 587.9 135.8 590.8 133.4 596.3 133.3 604.4 131.5 604.6 131.9 605.2 131.6 607.9 131.5 609.1 131.2 610.6 131.6 611 131.8 611 131.7 609.4 129.3 609.5 127.9 609.6 123.6 609.7 123.6 609.6 123.4 609.5 123.4 609.1 123.1 606.5 121.9 606.1 121.4 605.3 119.1 605.3 118.9 605.3 118.8 602.7 117.5 602.6 117.9 600 117.6 599.7 118.1Z" path-identifier="TUR" id="path4581"></path>
    <path d="M628.7 117.2L631.5 115.7 634.9 119.4 630.2 122.3 634.3 126 635.1 130.9 635.2 131.1 639.7 128.6 655 133.4 655.8 136.6 656 136.8 656.2 136.7 661.3 136 664.1 134.7 668.2 131.2 668.8 131.1 668.7 130.9 665.6 128.1 652 118.3 639.6 118.4 637.8 118.2 637.6 118.2 634 115.9 631.8 115 628.3 116.9 628.7 117.2Z" path-identifier="TKM" id="path4583"></path>
    <path d="M588.5 238.2L587.2 239.7 582.3 239.5 581.6 240 579.9 240 579.6 240.5 579.8 240.4 579.8 244.3 580.9 245 576 254.7 576.1 256.3 576.7 256.1 577.2 256.5 577.7 256.1 578.2 255.2 578.6 255.2 579.1 255.3 581.3 255 585.1 255 587 255 588.4 255 588.4 253.3 589.8 249.2 591.5 245.1 588.7 238.3 588.5 238.2Z" path-identifier="UGA" id="path4585"></path>
    <path d="M549.7 86.5L547.9 92.5 548 93.9 547.9 93.9 547.9 94 547.7 94.2 547.4 95.1 547.1 95.5 547.1 96 547.4 96 548.4 97 548.7 96.9 549 97.3 549.1 97.5 549.2 97.4 554.3 98.2 557.6 96.7 558.4 96.5 558.4 96.4 560.7 95.8 563.6 105.2 563.6 105.4 563.8 105.4 566.4 105.4 567.4 106.1 567.6 106.1 570.6 101.6 576.7 103.5 577.4 108.3 581.6 107.1 582.3 101.7 587.9 100.3 588.2 100.2 591.6 97.4 591 92.2 580.9 89.7 573.6 83.7 569.4 84.5 569.1 84.4 568.1 84.4 565.6 86.4 553.3 84.9 549.6 86.3 549.4 86.2 549.7 86.5Z" path-identifier="UKR" id="path4587"></path>
    <path d="M646.7 168.6L642.2 173.9 635.7 174.3 634.1 172.3 633.9 172.3 633.6 172.5 633.2 172.5 632.8 171.9 632.8 171.9 636.9 179.1 646.6 180.6 647.1 179.9 646.6 175 647.4 173.7 647.1 171 648.1 171.2 648 170.4 647.9 169.4 647.8 169.2 647.6 169 647.2 168.9 647.2 167.8 646.9 167.6 646.7 168.6Z" path-identifier="ARE" id="path4589"></path>
    <path d="M481 81.3L481.3 80.4 480.6 80.7 481 81.3ZM479.4 74.3L479.2 73.4 478.9 73.5 479.4 74.3ZM477.6 69.4L477 67.4 475.9 68.2 477.6 69.4ZM485 63.8L484.5 63.5 484 63.1 485 63.8ZM474.6 68L475 67.4 474.2 67.6 474.6 68ZM476.8 73.8L477.2 72.8 476.7 72.9 476.8 73.8ZM477.5 73.2L478.2 72.1 477.6 72.5 477.5 73.2ZM488.5 89.2L489 88.9 488.5 88.6 488.5 89.2ZM474.5 69.2L474.4 68.4 474.4 69.2 474.5 69.2ZM488.8 61L488.8 59.5 487.8 59.7 488.8 61ZM479.5 66.6L477 70.4 481 72.7 481 85.5 483.2 88.9 492.3 88.7 495.7 82.4 488.2 75.4 484.6 67.5 479.5 66.6Z" path-identifier="GBR" id="path4591"></path>
    <path d="M130 70.3L136.1 68.2 134.6 66.8 130 70.3ZM173.7 69.5L174.9 68.6 174.6 68.6 173.7 69.5ZM132.8 69.5L133.5 68.9 132.8 69.3 132.8 69.5ZM179.5 71L180.3 70.7 179.9 70.1 179.5 71ZM119.8 64.8L121.5 64.1 120.8 64.3 119.8 64.8ZM178.6 71.8L179.6 71.1 179 71.2 178.6 71.8ZM46.2 181.1L46.7 180.1 46 180.3 46.2 181.1ZM179.1 72.8L180 71.5 179.6 71.5 179.1 72.8ZM175.7 72.8L176.9 72.5 177.3 72.1 175.7 72.8ZM931.1 86.8L928.8 86 929.5 86.1 931.1 86.8ZM109.1 75.2L110.2 75 110.5 74.4 109.1 75.2ZM109.8 76L111.8 74.7 111.2 75 109.8 76ZM97.3 77.4L101.9 76.3 101.8 75.4 97.3 77.4ZM893.6 77.1L891.7 76.2 891 76.1 893.6 77.1ZM87 80.9L92.4 78.7 90.5 78.8 87 80.9ZM911.1 82.5L910.7 81.7 909.5 82 911.1 82.5ZM68.4 84.7L70.1 84.5 67.6 84.4 68.4 84.7ZM64.2 84.8L66.9 84.5 67.4 83.8 64.2 84.8ZM58.8 86.1L60.8 85.3 60.9 84.9 58.8 86.1ZM56.4 86L57.9 85.2 56.8 85.5 56.4 86ZM54.1 185.4L55.2 184.6 54.6 184.2 54.1 185.4ZM298 120.7L301.7 119.5 299.7 119.4 298 120.7ZM185.7 94.3L179.1 98.1 178.7 102.7 169.3 113.5 165.9 123 165.3 128.9 166.8 132.8 167.1 140.6 170.1 141.5 173.7 146.3 173.8 146.8 180 146.9 189 150.7 202.3 150.2 205 153.3 213.8 155.7 219.1 167.1 222.7 168 222.7 167.6 222 163.1 234.7 155 241.5 157.4 255.5 153.7 263.1 156.1 266.7 169.9 267.8 170.7 270.5 164.8 269.1 152.3 284 139.8 287.6 137.4 290.7 129.5 298.8 119.5 308.6 117 309.7 111.9 320.3 106.8 320.1 106.2 320 99.5 313.3 103 309 106.7 300.4 106.7 295.3 109.6 288.9 111 283.8 114.9 275.5 116.6 280 111.2 280.8 105.4 270.4 96.3 262.3 97.2 254.5 94.2 185.7 94.2 185.7 94.3ZM137.2 66.5L138.8 65.1 137.6 65.6 137.2 66.5ZM100.4 59.7L99.7 58.9 99.4 59.1 100.4 59.7ZM112.3 61.3L114.6 59.6 111 59.9 112.3 61.3ZM116.2 51.9L119.7 50.9 115.6 50.4 116.2 51.9ZM201.1 33.1L181.7 30.3 178.5 29.2 166.2 30.6 155 33.9 146.5 35.3 148 40 140.9 42.9 135.9 42.7 129.9 47.1 142.2 46.3 137.3 50.2 129.5 51 119.5 56 121.6 62.1 117.6 64.6 129.7 64.3 113.9 71.7 118 71.7 135.4 65.4 137.5 63.1 149.1 57.8 164.2 60.5 182.4 66.9 183.7 73.3 184.4 72.8 182.7 69.4 182.5 61.1 175.5 63.8 174.6 59.5 171.5 59.6 181.6 50.1 201.5 33.1 201.1 33.1Z" path-identifier="USA" id="path4593"></path>
    <path d="M334 357.7L335.9 363.2 346.8 362.8 347.2 361 347.5 360.7 347.6 357.5 339.6 351.7 334.2 349.3 334 349.3 334 349.3 333.5 350.6 333.7 356.6 334 357.7Z" path-identifier="URY" id="path4595"></path>
    <path d="M637.8 118.2L639.6 118.4 652 118.3 665.6 128.1 668.7 130.9 668.8 131.1 668.9 131 670.8 131.6 671.5 131.3 672.2 131.6 672.2 131.6 672.3 131.4 669.4 124.1 676.1 119.3 677.7 121.7 678 121.7 678 121.6 683 120 678.4 117.7 676.1 115.2 676 115.3 675.7 115.5 669.4 118.9 654.5 111 651.6 111.5 634.8 106.7 637.8 118.2Z" path-identifier="UZB" id="path4597"></path>
    <path d="M965 309.4L965.5 309.3 965.5 308.4 965 309.4ZM966.6 313.2L966.9 312.8 966.2 312 966.6 313.2ZM966.1 306.2L965.2 305.8 965.3 306.1 966.1 306.2ZM966.6 315.2L966.1 314.6 966.3 315.2 966.6 315.2ZM963.5 305.4L964.4 304.5 963.6 303.8 963.5 305.4ZM965.3 301.8L965.5 301.2 965 301.5 965.3 301.8ZM962.2 302.4L963.1 300.1 962.9 300.7 962.2 302.4Z" path-identifier="VUT" id="path4599"></path>
    <path d="M301 247.9L302.5 249.4 309 246.5 307.5 238.2 309.8 239 318.9 235.1 318.7 235 316.9 232.6 319.8 229.4 319.5 226.6 321.2 224.3 321.1 224.2 314.2 217.1 307.6 219.3 298.2 217.9 293.5 212.5 289.3 222.3 286.9 220.1 289.4 213.9 289.5 213.5 285 217.8 283.4 222.2 285.9 224.8 285.6 227.6 292.2 229.3 298.5 234.7 300.7 246.3 301 247.9Z" path-identifier="VEN" id="path4601"></path>
    <path d="M795.4 204.3L795.5 204.8 796.1 208.1 788.1 218.2 788.1 218.3 789.9 224.1 794.5 217.9 800.8 215.1 800.6 207 799 202.5 788.2 189.7 793.6 182.5 793.4 182.3 789.4 178.2 781.6 179.2 776.7 179.4 776.6 179.5 777 180.1 783.6 184.5 786.3 191.3 795.6 202.5 795.3 204 795.4 204.3Z" path-identifier="VNM" id="path4603"></path>
    <path d="M454.9 163.7L454 165.6 447.8 174.6 443.9 184.6 444 184.8 444.3 182.9 455.3 182.9 455.2 179.1 458.3 176.1 458.5 167.9 467.7 167.9 467.8 163.7 467.8 162.5 464.3 162.5 455.3 162.5 454.9 163.7Z" path-identifier="ESH" id="path4605"></path>
    <path d="M4.7 296.4L4.1 295.3 2.9 295.5 4.7 296.4ZM6.2 297.2L6 296.5 5.5 296.4 6.2 297.2Z" path-identifier="WSM" id="path4607"></path>
    <path d="M625.2 195.1L620.4 203 616.9 195.6 612.3 198.9 612.3 199.1 614.8 210.4 617.1 211 625.7 207.8 633.8 203.7 640.1 198.5 641.2 198.1 640 196.7 637.4 191.9 637.6 190.5 625.2 195.1Z" path-identifier="YEM" id="path4609"></path>
    <path d="M544 114.5L545 115.5 545.3 116.3 545.3 116.5 545.4 116.6 546.8 115.7 546.9 115.8 549.6 115 549.7 115.1 550.1 114.9 551.1 112.5 549.8 111.5 549.8 109.3 549.9 109.1 549.5 108.8 546.5 106.2 544.6 105.2 543.5 103.7 543.1 103.3 542.7 103.1 541.3 103.1 540.1 103.7 539.5 103.9 539.6 104.1 541.2 106.2 540.6 106.2 540.3 107.1 540.4 107.2 540.7 107 541.3 109 541.8 110.6 541.1 111.4 540.8 111.4 544.2 113.2 544 113.5 543.6 113.9 543.7 114.4 544 114.5Z" path-identifier="SRB" id="path4611"></path>
    <path d="M579.6 240.5L579.6 240.3 575.6 236.7 572 237.8 570.2 236 569.9 235.6 569.8 235.4 556.9 236.3 555.7 238.4 547.4 235.2 544.7 239.6 544.8 240.6 544.8 241.4 542 254 537.9 258.8 536.8 264.6 532.7 267.6 529 266.6 529 266.8 528.9 266.9 527.3 270.3 526.4 270.4 526.6 270.7 527.1 271.2 527.9 271 528.5 270.6 529.2 270.7 538.3 270.7 543.2 277.7 546.8 277.6 549.5 274.4 553.7 275.5 554.8 288.1 559.4 287.4 559.7 286.9 560.1 287 563.6 289.4 568.2 290.1 574.2 295.1 575.2 291.3 572.3 289.9 573.1 283.5 578.6 278.4 579.1 278.3 579 277.6 575.7 271 576 270.4 575.5 266.5 575.5 266.2 575.4 265.2 574.9 262.3 575 261.9 574.3 260.8 574.4 260.7 574 260.4 574.8 258.5 574.7 258 575.4 256.7 576.1 256.3 576 254.7 580.9 245 579.8 244.3 579.8 240.4 579.6 240.5Z" path-identifier="COD" id="path4613"></path>
    <path d="M577.5 302.3L577.3 302 578.8 299.5 582.3 298.3 585.6 297 585.4 296.8 585 297.1 585.3 282.4 585.2 282.2 584.9 282 582.5 280.6 581.3 279.9 579.5 279.1 579.1 278.3 578.6 278.4 573.1 283.5 572.3 289.9 575.2 291.3 574.2 295.1 568.2 290.1 563.6 289.4 560.1 287 559.7 286.9 559.9 288.7 559.7 293.8 553.9 293.8 553.9 304.2 556.9 308.2 557.7 308.7 559.9 308.3 561.3 308.3 562.1 308.6 562.3 308.9 562.7 309.3 563.1 309.4 573 303.7 577.4 302.3 577.5 302.3Z" path-identifier="ZMB" id="path4615"></path>
    <path d="M562.7 309.3L562.6 309.6 566.2 315.9 573.3 323 573.6 323.5 573.9 323.4 574.8 323.3 578.6 323.9 579 324.2 579.3 324 584.4 306.2 577.4 303.5 577.5 302.3 577.4 302.3 573 303.7 563.1 309.4 562.7 309.3Z" path-identifier="ZWE" id="path4617"></path>
    <circle path-identifier="BHS" cx="278.7" cy="173" r="3.7" style="fill:#fff;stroke-width:0.7" id="circle4619"></circle>
    <circle path-identifier="JAM" cx="272.5" cy="194" r="3.7" class="a" id="circle4621"></circle>
    <circle path-identifier="KNA" cx="308.9" cy="190.8" r="3.7" class="a" id="circle4623"></circle>
    <circle path-identifier="ATG" cx="324.9" cy="193.5" r="3.7" class="a" id="circle4625"></circle>
    <circle path-identifier="DMA" cx="315.7" cy="195.2" r="3.7" class="a" id="circle4627"></circle>
    <circle path-identifier="LCU" cx="319.4" cy="202.6" r="3.7" class="a" id="circle4629"></circle>
    <circle path-identifier="GRD" cx="310" cy="216.5" r="3.7" class="a" id="circle4631"></circle>
    <circle path-identifier="TTO" cx="319.1" cy="218.5" r="3.7" class="a" id="circle4633"></circle>
    <circle path-identifier="BRB" cx="325.7" cy="209.3" r="3.7" class="a" id="circle4635"></circle>
    <circle path-identifier="VCT" cx="315.8" cy="210.5" r="3.7" class="a" id="circle4637"></circle>
    <circle path-identifier="LUX" cx="506.5" cy="92" r="3.7" class="a" id="circle4639"></circle>
    <circle path-identifier="AND" cx="495.1" cy="114.7" r="3.7" class="a" id="circle4641"></circle>
    <circle path-identifier="MCO" cx="505.2" cy="111.7" r="3.7" class="a" id="circle4643"></circle>
    <circle path-identifier="VAT" cx="524.3" cy="117.3" r="3.7" class="a" id="circle4645"></circle>
    <circle path-identifier="SMR" cx="523.5" cy="109.5" r="3.7" class="a" id="circle4647"></circle>
    <circle path-identifier="LIE" cx="514.5" cy="96.9" r="3.7" class="a" id="circle4649"></circle>
    <circle path-identifier="QAT" cx="634.5" cy="170.7" r="3.7" class="a" id="circle4651"></circle>
    <circle path-identifier="BHR" cx="628" cy="163.7" r="3.7" class="a" id="circle4653"></circle>
    <circle path-identifier="KWT" cx="622.37988" cy="157.16028" r="3.7" class="a" id="circle4655"></circle>
    <circle path-identifier="DJI" cx="612.9" cy="213.9" r="3.7" class="a" id="circle4657"></circle>
    <circle path-identifier="UNK" cx="546" cy="112.9" r="3.7" class="a" id="circle4659"></circle>
    <circle path-identifier="STP" cx="512.8" cy="246.4" r="3.7" class="a" id="circle4661"></circle>
    <circle path-identifier="CPV" cx="423.7" cy="199.9" r="3.7" class="a" id="circle4663"></circle>
    <circle path-identifier="COM" cx="616.2" cy="288.6" r="3.7" class="a" id="circle4665"></circle>
    <circle path-identifier="MUS" cx="649.8" cy="314.4" r="3.7" class="a" id="circle4667"></circle>
    <circle path-identifier="SYC" cx="649.9" cy="266.5" r="3.7" class="a" id="circle4669"></circle>
    <circle path-identifier="MDV" cx="700.1" cy="243.4" r="3.7" class="a" id="circle4671"></circle>
    <circle path-identifier="SGP" cx="788.5" cy="244.9" r="3.7" class="a" id="circle4673"></circle>
    <circle path-identifier="BRN" cx="818.5" cy="235.7" r="3.7" class="a" id="circle4675"></circle>
    <circle path-identifier="TLS" cx="846.4" cy="282.2" r="3.7" class="a" id="circle4677"></circle>
    <circle path-identifier="VUT" cx="964.1" cy="304.2" r="3.7" class="a" id="circle4679"></circle>
    <circle path-identifier="SLB" cx="945.5" cy="284.2" r="3.7" class="a" id="circle4681"></circle>
    <circle path-identifier="NRU" cx="965.4" cy="252.8" r="3.7" class="a" id="circle4683"></circle>
    <circle path-identifier="FSM" cx="937.1" cy="233.1" r="3.7" class="a" id="circle4685"></circle>
    <circle path-identifier="PLW" cx="881.5" cy="230.4" r="3.7" class="a" id="circle4687"></circle>
    <circle path-identifier="FJI" cx="994.4" cy="307.3" r="3.7" class="a" id="circle4689"></circle>
    <circle path-identifier="MHL" cx="970.3" cy="231.8" r="3.7" class="a" id="circle4691"></circle>
    <circle path-identifier="GMB" cx="448.4" cy="207.8" r="3.7" class="a" id="circle4693"></circle>
    <circle path-identifier="TUV" cx="994.7" cy="280.3" r="3.7" class="a" id="circle4695"></circle>
    <circle path-identifier="WSM" cx="10.6" cy="295.4" r="3.7" class="a" id="circle4697"></circle>
    <circle path-identifier="TON" cx="15.1" cy="322.9" r="3.7" class="a" id="circle4699"></circle>
    <circle path-identifier="KIR" cx="29.9" cy="247.6" r="3.7" class="a" id="circle4701"></circle>
    <circle path-identifier="MLT" cx="529.4" cy="137.7" r="3.7" class="a" id="circle4703"></circle>
    <circle path-identifier="CYP" cx="580.7" cy="140.3" r="3.7" class="a" id="circle4705"></circle>
    <path d="m588.5 220.3c-3.5-5.7-5.5-5.5-5.5-5.5l-2.6 4.6-5.4-0.6-3.6 1.5-5.7-1.2-2.4-1.4-5.3 3.1 0.3 2.9 8.6 6.8 5.1 7.3 3.6-1.1 4.2 3.8 2.7-0.9 4.6 0.5 2.5-2.9 4-0.2-3-6.1-3.1-3.6z" path-identifier="SSD" id="path4707"></path>
    <circle path-identifier="HTI" cx="287.62241" cy="191.07028" r="3.7" class="a" id="circle4623-0"></circle>
    <circle path-identifier="LBN" cx="588.15479" cy="138.76985" r="3.7" class="a" id="circle4705-9"></circle>
    <circle path-identifier="ISR" cx="584.79218" cy="144.41422" r="3.7" class="a" id="circle4705-3"></circle>
    <circle path-identifier="PSE" cx="585.54279" cy="151.01932" r="3.7" class="a" id="circle4705-30"></circle>
</svg>