<svg version="1.0" xmlns="http://www.w3.org/2000/svg"
 width="400.000000pt" height="400.000000pt" viewBox="0 0 400.000000 400.000000"
 preserveAspectRatio="xMidYMid meet">
<g transform="translate(0.000000,400.000000) scale(0.100000,-0.100000)"
fill="#2b87ff" stroke="none">
<path d="M1700 3975 c-164 -28 -203 -37 -311 -71 -514 -160 -963 -549 -1190
-1029 -427 -903 -141 -1979 671 -2527 320 -216 737 -348 1101 -348 571 0 1061
202 1459 602 315 317 513 741 560 1197 39 387 -30 751 -212 1111 -196 390
-479 672 -868 868 -389 196 -814 265 -1210 197z m-120 -375 c-36 -33 -103 -86
-150 -119 -194 -136 -216 -155 -325 -284 -124 -147 -121 -143 -198 -291 -58
-111 -68 -155 -46 -199 19 -36 62 -77 81 -77 43 0 334 -63 462 -100 276 -80
348 -112 408 -182 61 -71 86 -121 99 -197 9 -51 8 -70 -6 -113 -38 -118 -204
-306 -289 -329 -70 -18 -187 -82 -212 -115 -47 -60 -81 -180 -99 -338 -17
-159 -14 -198 26 -314 33 -94 23 -119 -58 -142 -38 -12 -45 -11 -85 13 -89 52
-180 228 -239 460 -11 45 -35 129 -54 187 -19 58 -37 134 -40 170 -13 118 -38
153 -137 190 -48 17 -63 30 -103 83 -86 117 -100 154 -104 301 -4 171 12 235
80 314 27 31 53 71 58 87 7 26 3 36 -32 78 -21 26 -59 61 -83 79 l-44 31 27
46 c41 71 91 147 105 162 7 8 22 28 32 44 37 57 221 237 314 307 79 60 252
168 268 168 2 0 37 15 77 34 85 40 273 102 317 105 8 0 -14 -26 -50 -59z m968
9 c52 -17 155 -62 230 -100 459 -230 777 -653 894 -1189 19 -90 22 -134 22
-310 0 -221 -11 -313 -60 -483 -33 -114 -116 -319 -140 -346 -1 -1 -28 8 -59
23 -48 21 -59 32 -76 71 -12 27 -25 87 -30 143 -17 170 -59 430 -80 500 -12
37 -41 109 -65 160 -40 83 -51 97 -107 139 -82 61 -122 77 -265 112 -153 36
-200 59 -261 127 -59 67 -91 161 -91 268 0 57 5 78 32 128 40 76 100 144 148
168 46 24 127 92 158 134 12 16 22 42 22 57 0 32 -40 83 -81 104 -60 32 -172
9 -287 -57 -49 -28 -67 -33 -124 -33 -87 0 -101 12 -106 100 -5 76 13 133 59
192 31 38 143 123 163 123 6 0 53 -14 104 -31z m440 -2863 c62 -13 115 -26
118 -28 8 -8 -82 -80 -186 -148 -234 -153 -464 -231 -770 -261 -231 -22 -445
1 -669 72 -109 35 -293 118 -285 130 2 4 26 11 52 15 26 3 108 25 182 49 256
81 345 106 480 130 298 55 379 63 680 63 261 1 294 -1 398 -22z"/>
</g>
</svg>
